ISO-10303-21;
HEADER;
/* Generated by software containing ST-Developer
 * from STEP Tools, Inc. (www.steptools.com) 
 */
/* OPTION: using custom renumber hook */

FILE_DESCRIPTION(
/* description */ ('STEP AP242 Edition 2',
'CAx-IF Rec.Pracs.---Representation and Presentation of Product Manufa
cturing Information (PMI)---4.0---2014-10-13',
'CAx-IF Rec.Pracs.---3D Tessellated Geometry---0.4---2014-09-14','2;1',
'CAx-IF Rec.Pracs.---User Defined Attributes---1.5---2016-08-15'),
/* implementation_level */ '2;1');

FILE_NAME(
/* name */ 'Cherry MX Keycap',
/* time_stamp */ '2026-06-05T22:14:00Z',
/* author */ (''),
/* organization */ (''),
/* preprocessor_version */ 'ST-DEVELOPER v20',
/* originating_system */ 'ONSHAPE BY PTC INC, 1.216',
/* authorisation */ '  ');

FILE_SCHEMA (('AP242_MANAGED_MODEL_BASED_3D_ENGINEERING_MIM_LF { 1 0 10303 442 3 1 4 }'));
ENDSEC;

DATA;
#10=SHAPE_REPRESENTATION_RELATIONSHIP('','',#640,#11);
#11=ADVANCED_BREP_SHAPE_REPRESENTATION('',(#638),#1282);
#12=CIRCLE('',#655,0.0028);
#13=B_SPLINE_SURFACE_WITH_KNOTS('',3,1,((#896,#897),(#898,#899),(#900,#901),
(#902,#903),(#904,#905),(#906,#907),(#908,#909)),
 .SURF_OF_LINEAR_EXTRUSION.,.F.,.F.,.F.,(4,1,1,1,4),(2,2),(0.591144460361869,
1.08097039416153,1.5707963279612,2.06062226176086,2.55044819556053),(0.,
1.),.UNSPECIFIED.);
#14=B_SPLINE_SURFACE_WITH_KNOTS('',3,3,((#1020,#1021,#1022,#1023,#1024,
#1025),(#1026,#1027,#1028,#1029,#1030,#1031),(#1032,#1033,#1034,#1035,#1036,
#1037),(#1038,#1039,#1040,#1041,#1042,#1043),(#1044,#1045,#1046,#1047,#1048,
#1049)),.UNSPECIFIED.,.F.,.F.,.F.,(4,1,4),(4,1,1,4),(0.,0.5,1.),(0.,0.0470829409573317,
0.0784715682622195,0.109860195567107),.UNSPECIFIED.);
#15=B_SPLINE_SURFACE_WITH_KNOTS('',3,3,((#1077,#1078,#1079,#1080,#1081,
#1082,#1083,#1084,#1085),(#1086,#1087,#1088,#1089,#1090,#1091,#1092,#1093,
#1094),(#1095,#1096,#1097,#1098,#1099,#1100,#1101,#1102,#1103),(#1104,#1105,
#1106,#1107,#1108,#1109,#1110,#1111,#1112),(#1113,#1114,#1115,#1116,#1117,
#1118,#1119,#1120,#1121)),.UNSPECIFIED.,.F.,.F.,.F.,(4,1,4),(4,1,1,1,1,
1,4),(0.,0.571428571428571,1.),(0.307328262690048,0.46768968171723,0.628051100744413,
0.788412519771595,1.10913535782596,1.26949677685314,1.42985819588032),
 .UNSPECIFIED.);
#16=B_SPLINE_SURFACE_WITH_KNOTS('',3,3,((#1149,#1150,#1151,#1152,#1153),
(#1154,#1155,#1156,#1157,#1158),(#1159,#1160,#1161,#1162,#1163),(#1164,
#1165,#1166,#1167,#1168),(#1169,#1170,#1171,#1172,#1173)),.UNSPECIFIED.,
 .F.,.F.,.F.,(4,1,4),(4,1,4),(0.,0.5,1.),(6.08024765266905E-13,0.0470830600451046,
0.109860473437767),.UNSPECIFIED.);
#17=B_SPLINE_SURFACE_WITH_KNOTS('',3,3,((#1194,#1195,#1196,#1197),(#1198,
#1199,#1200,#1201),(#1202,#1203,#1204,#1205),(#1206,#1207,#1208,#1209),
(#1210,#1211,#1212,#1213)),.UNSPECIFIED.,.F.,.F.,.F.,(4,1,4),(4,4),(0.,
0.5,1.),(0.488219134713553,1.73133714327111),.UNSPECIFIED.);
#18=B_SPLINE_SURFACE_WITH_KNOTS('',3,3,((#1230,#1231,#1232,#1233),(#1234,
#1235,#1236,#1237),(#1238,#1239,#1240,#1241),(#1242,#1243,#1244,#1245),
(#1246,#1247,#1248,#1249)),.UNSPECIFIED.,.F.,.F.,.F.,(4,1,4),(4,4),(0.,
0.5,1.),(0.130102567440264,1.37322057599783),.UNSPECIFIED.);
#19=B_SPLINE_SURFACE_WITH_KNOTS('',3,1,((#1259,#1260),(#1261,#1262),(#1263,
#1264),(#1265,#1266),(#1267,#1268),(#1269,#1270),(#1271,#1272),(#1273,#1274),
(#1275,#1276),(#1277,#1278),(#1279,#1280)),.SURF_OF_LINEAR_EXTRUSION.,.F.,
 .F.,.F.,(4,1,1,1,1,1,1,1,4),(2,2),(0.294774463217242,0.613744227518322,
0.932713991819403,1.25168375612048,1.57065352042156,1.88962328472264,2.20859304902372,
2.5275628133248,2.84653257762588),(0.,1.),.UNSPECIFIED.);
#20=ELLIPSE('',#647,0.0456791599164024,0.0456386854637354);
#21=ELLIPSE('',#648,0.0456791599164024,0.0456386854637354);
#22=ELLIPSE('',#649,0.0456791599164024,0.0456386854637354);
#23=ELLIPSE('',#650,0.0456791599164024,0.0456386854637354);
#24=ELLIPSE('',#651,0.0456791599164024,0.0456386854637354);
#25=ELLIPSE('',#652,0.0456791599164024,0.0456386854637354);
#26=ELLIPSE('',#670,0.00446199941455736,0.001);
#27=ELLIPSE('',#672,0.00312339959019015,0.001);
#28=ELLIPSE('',#673,0.00312339959019015,0.001);
#29=ELLIPSE('',#675,0.00446199941455736,0.001);
#30=CYLINDRICAL_SURFACE('',#646,0.0456386854637354);
#31=CYLINDRICAL_SURFACE('',#662,0.0028);
#32=CYLINDRICAL_SURFACE('',#678,0.001);
#33=CYLINDRICAL_SURFACE('',#680,0.001);
#34=B_SPLINE_CURVE_WITH_KNOTS('',3,(#842,#843,#844,#845),.UNSPECIFIED.,
 .F.,.F.,(4,4),(1.87507419243913E-15,0.012273707026768),.UNSPECIFIED.);
#35=B_SPLINE_CURVE_WITH_KNOTS('',3,(#849,#850,#851,#852),.UNSPECIFIED.,
 .F.,.F.,(4,4),(0.,0.0122737073111598),.UNSPECIFIED.);
#36=B_SPLINE_CURVE_WITH_KNOTS('',3,(#856,#857,#858,#859,#860,#861,#862),
 .UNSPECIFIED.,.F.,.F.,(4,1,1,1,4),(3.51299265096927E-12,0.00269772195145756,
0.00539544389940212,0.00809316584734668,0.0107908877952912),
 .UNSPECIFIED.);
#37=B_SPLINE_CURVE_WITH_KNOTS('',3,(#889,#890,#891,#892,#893,#894,#895),
 .UNSPECIFIED.,.F.,.F.,(4,1,1,1,4),(1.83358946379612E-13,0.00275981572691681,
0.00551963145365026,0.00827944718038372,0.0110392629071172),
 .UNSPECIFIED.);
#38=B_SPLINE_CURVE_WITH_KNOTS('',3,(#910,#911,#912,#913,#914,#915,#916,
#917,#918,#919,#920),.UNSPECIFIED.,.T.,.F.,(1,1,1,1,1,1,1,1,1,1,1,1,1,1,
1),(-0.0065693663812362,-0.00437957758748685,-0.00218978879373749,1.18631000154491E-14,
0.00218978879376122,0.00437957758751057,0.00656936638125992,0.00875915517500928,
0.0109489439687586,0.013138732762508,0.0153285215562573,0.0175183103500067,
0.019708099143756,0.0218978879375054,0.0240876767312548),.UNSPECIFIED.);
#39=B_SPLINE_CURVE_WITH_KNOTS('',3,(#999,#1000,#1001,#1002),
 .UNSPECIFIED.,.F.,.F.,(4,4),(0.,0.000505352919692041),.UNSPECIFIED.);
#40=B_SPLINE_CURVE_WITH_KNOTS('',3,(#1004,#1005,#1006,#1007,#1008,#1009,
#1010,#1011,#1012),.UNSPECIFIED.,.F.,.F.,(4,1,1,1,1,1,4),(0.000135278858276009,
0.00163611423263949,0.00313694960700297,0.00613862035572992,0.00914029110445688,
0.0106411264788204,0.0121419618531838),.UNSPECIFIED.);
#41=B_SPLINE_CURVE_WITH_KNOTS('',3,(#1014,#1015,#1016,#1017),
 .UNSPECIFIED.,.F.,.F.,(4,4),(5.34436397267833E-13,0.000505358389749553),
 .UNSPECIFIED.);
#42=B_SPLINE_CURVE_WITH_KNOTS('',3,(#1050,#1051,#1052,#1053),
 .UNSPECIFIED.,.F.,.F.,(4,4),(0.,1.),.UNSPECIFIED.);
#43=B_SPLINE_CURVE_WITH_KNOTS('',3,(#1056,#1057,#1058,#1059,#1060,#1061,
#1062,#1063,#1064,#1065),.UNSPECIFIED.,.F.,.F.,(4,1,1,1,1,1,1,4),(0.,0.125,
0.25,0.375,0.5,0.625,0.75,1.),.UNSPECIFIED.);
#44=B_SPLINE_CURVE_WITH_KNOTS('',3,(#1067,#1068,#1069,#1070),
 .UNSPECIFIED.,.F.,.F.,(4,4),(0.,1.),.UNSPECIFIED.);
#45=B_SPLINE_CURVE_WITH_KNOTS('',3,(#1072,#1073,#1074,#1075,#1076),
 .UNSPECIFIED.,.F.,.F.,(4,1,4),(0.,0.5,1.),.UNSPECIFIED.);
#46=B_SPLINE_CURVE_WITH_KNOTS('',3,(#1122,#1123,#1124,#1125),
 .UNSPECIFIED.,.F.,.F.,(4,4),(0.,1.),.UNSPECIFIED.);
#47=B_SPLINE_CURVE_WITH_KNOTS('',3,(#1128,#1129,#1130,#1131,#1132,#1133,
#1134,#1135,#1136),.UNSPECIFIED.,.F.,.F.,(4,1,1,1,1,1,4),(-1.42985819588032,
-1.26949677685314,-1.10913535782596,-0.788412519771595,-0.628051100744413,
-0.46768968171723,-0.307328262690048),.UNSPECIFIED.);
#48=B_SPLINE_CURVE_WITH_KNOTS('',3,(#1137,#1138,#1139,#1140,#1141,#1142,
#1143,#1144,#1145,#1146,#1147,#1148),.UNSPECIFIED.,.F.,.F.,(4,1,1,1,1,1,
1,1,1,4),(0.,0.125,0.25,0.375,0.4375,0.5,0.625,0.75,0.875,1.),
 .UNSPECIFIED.);
#49=B_SPLINE_CURVE_WITH_KNOTS('',3,(#1174,#1175,#1176,#1177),
 .UNSPECIFIED.,.F.,.F.,(4,4),(0.,1.),.UNSPECIFIED.);
#50=B_SPLINE_CURVE_WITH_KNOTS('',3,(#1180,#1181,#1182,#1183,#1184,#1185,
#1186,#1187,#1188),.UNSPECIFIED.,.F.,.F.,(4,1,1,1,1,1,4),(0.,0.25,0.5,0.625,
0.75,0.875,1.),.UNSPECIFIED.);
#51=B_SPLINE_CURVE_WITH_KNOTS('',3,(#1189,#1190,#1191,#1192,#1193),
 .UNSPECIFIED.,.F.,.F.,(4,1,4),(0.,0.5,1.),.UNSPECIFIED.);
#52=B_SPLINE_CURVE_WITH_KNOTS('',3,(#1214,#1215,#1216,#1217),
 .UNSPECIFIED.,.F.,.F.,(4,4),(-1.73133714327111,-0.488219134713553),
 .UNSPECIFIED.);
#53=B_SPLINE_CURVE_WITH_KNOTS('',3,(#1218,#1219,#1220,#1221),
 .UNSPECIFIED.,.F.,.F.,(4,4),(0.488219134735675,1.73133714327112),
 .UNSPECIFIED.);
#54=B_SPLINE_CURVE_WITH_KNOTS('',3,(#1250,#1251,#1252,#1253),
 .UNSPECIFIED.,.F.,.F.,(4,4),(0.130102567440264,1.3732205759757),
 .UNSPECIFIED.);
#55=B_SPLINE_CURVE_WITH_KNOTS('',3,(#1254,#1255,#1256,#1257),
 .UNSPECIFIED.,.F.,.F.,(4,4),(-1.37322057599783,-0.130102567440264),
 .UNSPECIFIED.);
#56=ORIENTED_EDGE('',*,*,#232,.T.);
#57=ORIENTED_EDGE('',*,*,#233,.T.);
#58=ORIENTED_EDGE('',*,*,#234,.T.);
#59=ORIENTED_EDGE('',*,*,#235,.T.);
#60=ORIENTED_EDGE('',*,*,#236,.T.);
#61=ORIENTED_EDGE('',*,*,#237,.T.);
#62=ORIENTED_EDGE('',*,*,#238,.F.);
#63=ORIENTED_EDGE('',*,*,#239,.F.);
#64=ORIENTED_EDGE('',*,*,#240,.F.);
#65=ORIENTED_EDGE('',*,*,#233,.F.);
#66=ORIENTED_EDGE('',*,*,#241,.T.);
#67=ORIENTED_EDGE('',*,*,#242,.F.);
#68=ORIENTED_EDGE('',*,*,#243,.T.);
#69=ORIENTED_EDGE('',*,*,#244,.F.);
#70=ORIENTED_EDGE('',*,*,#245,.T.);
#71=ORIENTED_EDGE('',*,*,#235,.F.);
#72=ORIENTED_EDGE('',*,*,#241,.F.);
#73=ORIENTED_EDGE('',*,*,#232,.F.);
#74=ORIENTED_EDGE('',*,*,#245,.F.);
#75=ORIENTED_EDGE('',*,*,#246,.F.);
#76=ORIENTED_EDGE('',*,*,#247,.T.);
#77=ORIENTED_EDGE('',*,*,#248,.T.);
#78=ORIENTED_EDGE('',*,*,#249,.T.);
#79=ORIENTED_EDGE('',*,*,#250,.T.);
#80=ORIENTED_EDGE('',*,*,#251,.T.);
#81=ORIENTED_EDGE('',*,*,#252,.T.);
#82=ORIENTED_EDGE('',*,*,#253,.T.);
#83=ORIENTED_EDGE('',*,*,#254,.T.);
#84=ORIENTED_EDGE('',*,*,#255,.T.);
#85=ORIENTED_EDGE('',*,*,#256,.T.);
#86=ORIENTED_EDGE('',*,*,#257,.T.);
#87=ORIENTED_EDGE('',*,*,#258,.T.);
#88=ORIENTED_EDGE('',*,*,#240,.T.);
#89=ORIENTED_EDGE('',*,*,#259,.F.);
#90=ORIENTED_EDGE('',*,*,#243,.F.);
#91=ORIENTED_EDGE('',*,*,#234,.F.);
#92=ORIENTED_EDGE('',*,*,#260,.T.);
#93=ORIENTED_EDGE('',*,*,#242,.T.);
#94=ORIENTED_EDGE('',*,*,#246,.T.);
#95=ORIENTED_EDGE('',*,*,#244,.T.);
#96=ORIENTED_EDGE('',*,*,#259,.T.);
#97=ORIENTED_EDGE('',*,*,#261,.F.);
#98=ORIENTED_EDGE('',*,*,#262,.F.);
#99=ORIENTED_EDGE('',*,*,#263,.F.);
#100=ORIENTED_EDGE('',*,*,#264,.F.);
#101=ORIENTED_EDGE('',*,*,#265,.F.);
#102=ORIENTED_EDGE('',*,*,#266,.F.);
#103=ORIENTED_EDGE('',*,*,#267,.F.);
#104=ORIENTED_EDGE('',*,*,#268,.F.);
#105=ORIENTED_EDGE('',*,*,#269,.F.);
#106=ORIENTED_EDGE('',*,*,#270,.F.);
#107=ORIENTED_EDGE('',*,*,#271,.F.);
#108=ORIENTED_EDGE('',*,*,#272,.F.);
#109=ORIENTED_EDGE('',*,*,#273,.F.);
#110=ORIENTED_EDGE('',*,*,#254,.F.);
#111=ORIENTED_EDGE('',*,*,#274,.F.);
#112=ORIENTED_EDGE('',*,*,#261,.T.);
#113=ORIENTED_EDGE('',*,*,#275,.T.);
#114=ORIENTED_EDGE('',*,*,#255,.F.);
#115=ORIENTED_EDGE('',*,*,#275,.F.);
#116=ORIENTED_EDGE('',*,*,#272,.T.);
#117=ORIENTED_EDGE('',*,*,#276,.T.);
#118=ORIENTED_EDGE('',*,*,#256,.F.);
#119=ORIENTED_EDGE('',*,*,#276,.F.);
#120=ORIENTED_EDGE('',*,*,#271,.T.);
#121=ORIENTED_EDGE('',*,*,#277,.T.);
#122=ORIENTED_EDGE('',*,*,#257,.F.);
#123=ORIENTED_EDGE('',*,*,#277,.F.);
#124=ORIENTED_EDGE('',*,*,#270,.T.);
#125=ORIENTED_EDGE('',*,*,#278,.T.);
#126=ORIENTED_EDGE('',*,*,#258,.F.);
#127=ORIENTED_EDGE('',*,*,#278,.F.);
#128=ORIENTED_EDGE('',*,*,#269,.T.);
#129=ORIENTED_EDGE('',*,*,#279,.T.);
#130=ORIENTED_EDGE('',*,*,#253,.F.);
#131=ORIENTED_EDGE('',*,*,#280,.F.);
#132=ORIENTED_EDGE('',*,*,#262,.T.);
#133=ORIENTED_EDGE('',*,*,#274,.T.);
#134=ORIENTED_EDGE('',*,*,#260,.F.);
#135=ORIENTED_EDGE('',*,*,#273,.T.);
#136=ORIENTED_EDGE('',*,*,#247,.F.);
#137=ORIENTED_EDGE('',*,*,#279,.F.);
#138=ORIENTED_EDGE('',*,*,#268,.T.);
#139=ORIENTED_EDGE('',*,*,#281,.T.);
#140=ORIENTED_EDGE('',*,*,#248,.F.);
#141=ORIENTED_EDGE('',*,*,#281,.F.);
#142=ORIENTED_EDGE('',*,*,#267,.T.);
#143=ORIENTED_EDGE('',*,*,#282,.T.);
#144=ORIENTED_EDGE('',*,*,#249,.F.);
#145=ORIENTED_EDGE('',*,*,#282,.F.);
#146=ORIENTED_EDGE('',*,*,#266,.T.);
#147=ORIENTED_EDGE('',*,*,#283,.T.);
#148=ORIENTED_EDGE('',*,*,#250,.F.);
#149=ORIENTED_EDGE('',*,*,#283,.F.);
#150=ORIENTED_EDGE('',*,*,#265,.T.);
#151=ORIENTED_EDGE('',*,*,#284,.T.);
#152=ORIENTED_EDGE('',*,*,#251,.F.);
#153=ORIENTED_EDGE('',*,*,#284,.F.);
#154=ORIENTED_EDGE('',*,*,#264,.T.);
#155=ORIENTED_EDGE('',*,*,#285,.T.);
#156=ORIENTED_EDGE('',*,*,#252,.F.);
#157=ORIENTED_EDGE('',*,*,#285,.F.);
#158=ORIENTED_EDGE('',*,*,#263,.T.);
#159=ORIENTED_EDGE('',*,*,#280,.T.);
#160=ORIENTED_EDGE('',*,*,#286,.F.);
#161=ORIENTED_EDGE('',*,*,#287,.T.);
#162=ORIENTED_EDGE('',*,*,#236,.F.);
#163=ORIENTED_EDGE('',*,*,#288,.F.);
#164=ORIENTED_EDGE('',*,*,#289,.F.);
#165=ORIENTED_EDGE('',*,*,#290,.T.);
#166=ORIENTED_EDGE('',*,*,#291,.T.);
#167=ORIENTED_EDGE('',*,*,#292,.T.);
#168=ORIENTED_EDGE('',*,*,#288,.T.);
#169=ORIENTED_EDGE('',*,*,#239,.T.);
#170=ORIENTED_EDGE('',*,*,#293,.F.);
#171=ORIENTED_EDGE('',*,*,#294,.T.);
#172=ORIENTED_EDGE('',*,*,#295,.T.);
#173=ORIENTED_EDGE('',*,*,#293,.T.);
#174=ORIENTED_EDGE('',*,*,#238,.T.);
#175=ORIENTED_EDGE('',*,*,#296,.F.);
#176=ORIENTED_EDGE('',*,*,#296,.T.);
#177=ORIENTED_EDGE('',*,*,#237,.F.);
#178=ORIENTED_EDGE('',*,*,#287,.F.);
#179=ORIENTED_EDGE('',*,*,#297,.F.);
#180=ORIENTED_EDGE('',*,*,#298,.T.);
#181=ORIENTED_EDGE('',*,*,#299,.F.);
#182=ORIENTED_EDGE('',*,*,#300,.T.);
#183=ORIENTED_EDGE('',*,*,#301,.F.);
#184=ORIENTED_EDGE('',*,*,#302,.T.);
#185=ORIENTED_EDGE('',*,*,#303,.T.);
#186=ORIENTED_EDGE('',*,*,#304,.T.);
#187=ORIENTED_EDGE('',*,*,#305,.T.);
#188=ORIENTED_EDGE('',*,*,#306,.F.);
#189=ORIENTED_EDGE('',*,*,#307,.T.);
#190=ORIENTED_EDGE('',*,*,#302,.F.);
#191=ORIENTED_EDGE('',*,*,#308,.T.);
#192=ORIENTED_EDGE('',*,*,#309,.T.);
#193=ORIENTED_EDGE('',*,*,#310,.T.);
#194=ORIENTED_EDGE('',*,*,#306,.T.);
#195=ORIENTED_EDGE('',*,*,#311,.T.);
#196=ORIENTED_EDGE('',*,*,#298,.F.);
#197=ORIENTED_EDGE('',*,*,#312,.T.);
#198=ORIENTED_EDGE('',*,*,#309,.F.);
#199=ORIENTED_EDGE('',*,*,#313,.T.);
#200=ORIENTED_EDGE('',*,*,#297,.T.);
#201=ORIENTED_EDGE('',*,*,#286,.T.);
#202=ORIENTED_EDGE('',*,*,#314,.F.);
#203=ORIENTED_EDGE('',*,*,#312,.F.);
#204=ORIENTED_EDGE('',*,*,#314,.T.);
#205=ORIENTED_EDGE('',*,*,#289,.T.);
#206=ORIENTED_EDGE('',*,*,#292,.F.);
#207=ORIENTED_EDGE('',*,*,#315,.T.);
#208=ORIENTED_EDGE('',*,*,#310,.F.);
#209=ORIENTED_EDGE('',*,*,#291,.F.);
#210=ORIENTED_EDGE('',*,*,#316,.F.);
#211=ORIENTED_EDGE('',*,*,#307,.F.);
#212=ORIENTED_EDGE('',*,*,#315,.F.);
#213=ORIENTED_EDGE('',*,*,#290,.F.);
#214=ORIENTED_EDGE('',*,*,#295,.F.);
#215=ORIENTED_EDGE('',*,*,#317,.T.);
#216=ORIENTED_EDGE('',*,*,#303,.F.);
#217=ORIENTED_EDGE('',*,*,#316,.T.);
#218=ORIENTED_EDGE('',*,*,#300,.F.);
#219=ORIENTED_EDGE('',*,*,#318,.T.);
#220=ORIENTED_EDGE('',*,*,#304,.F.);
#221=ORIENTED_EDGE('',*,*,#319,.T.);
#222=ORIENTED_EDGE('',*,*,#294,.F.);
#223=ORIENTED_EDGE('',*,*,#301,.T.);
#224=ORIENTED_EDGE('',*,*,#319,.F.);
#225=ORIENTED_EDGE('',*,*,#317,.F.);
#226=ORIENTED_EDGE('',*,*,#318,.F.);
#227=ORIENTED_EDGE('',*,*,#299,.T.);
#228=ORIENTED_EDGE('',*,*,#313,.F.);
#229=ORIENTED_EDGE('',*,*,#311,.F.);
#230=ORIENTED_EDGE('',*,*,#308,.F.);
#231=ORIENTED_EDGE('',*,*,#305,.F.);
#232=EDGE_CURVE('',#320,#321,#378,.T.);
#233=EDGE_CURVE('',#321,#322,#379,.T.);
#234=EDGE_CURVE('',#322,#323,#380,.T.);
#235=EDGE_CURVE('',#323,#320,#381,.T.);
#236=EDGE_CURVE('',#324,#325,#382,.T.);
#237=EDGE_CURVE('',#325,#326,#383,.T.);
#238=EDGE_CURVE('',#327,#326,#384,.T.);
#239=EDGE_CURVE('',#324,#327,#385,.T.);
#240=EDGE_CURVE('',#322,#328,#386,.T.);
#241=EDGE_CURVE('',#321,#329,#387,.T.);
#242=EDGE_CURVE('',#328,#329,#34,.T.);
#243=EDGE_CURVE('',#323,#330,#388,.T.);
#244=EDGE_CURVE('',#331,#330,#35,.T.);
#245=EDGE_CURVE('',#331,#320,#389,.T.);
#246=EDGE_CURVE('',#329,#331,#36,.T.);
#247=EDGE_CURVE('',#332,#333,#20,.T.);
#248=EDGE_CURVE('',#333,#334,#390,.T.);
#249=EDGE_CURVE('',#334,#335,#21,.T.);
#250=EDGE_CURVE('',#335,#336,#391,.T.);
#251=EDGE_CURVE('',#336,#337,#22,.T.);
#252=EDGE_CURVE('',#337,#338,#392,.T.);
#253=EDGE_CURVE('',#338,#339,#23,.T.);
#254=EDGE_CURVE('',#339,#340,#393,.F.);
#255=EDGE_CURVE('',#340,#341,#24,.T.);
#256=EDGE_CURVE('',#341,#342,#394,.F.);
#257=EDGE_CURVE('',#342,#343,#25,.T.);
#258=EDGE_CURVE('',#343,#332,#395,.F.);
#259=EDGE_CURVE('',#330,#328,#37,.T.);
#260=EDGE_CURVE('',#344,#344,#38,.T.);
#261=EDGE_CURVE('',#345,#346,#396,.T.);
#262=EDGE_CURVE('',#347,#345,#397,.T.);
#263=EDGE_CURVE('',#348,#347,#398,.T.);
#264=EDGE_CURVE('',#349,#348,#399,.T.);
#265=EDGE_CURVE('',#350,#349,#400,.T.);
#266=EDGE_CURVE('',#351,#350,#401,.T.);
#267=EDGE_CURVE('',#352,#351,#402,.T.);
#268=EDGE_CURVE('',#353,#352,#403,.T.);
#269=EDGE_CURVE('',#354,#353,#404,.T.);
#270=EDGE_CURVE('',#355,#354,#405,.T.);
#271=EDGE_CURVE('',#356,#355,#406,.T.);
#272=EDGE_CURVE('',#346,#356,#407,.T.);
#273=EDGE_CURVE('',#357,#357,#12,.T.);
#274=EDGE_CURVE('',#345,#339,#408,.T.);
#275=EDGE_CURVE('',#346,#340,#409,.T.);
#276=EDGE_CURVE('',#356,#341,#410,.T.);
#277=EDGE_CURVE('',#355,#342,#411,.T.);
#278=EDGE_CURVE('',#354,#343,#412,.T.);
#279=EDGE_CURVE('',#353,#332,#413,.T.);
#280=EDGE_CURVE('',#347,#338,#414,.T.);
#281=EDGE_CURVE('',#352,#333,#415,.T.);
#282=EDGE_CURVE('',#351,#334,#416,.T.);
#283=EDGE_CURVE('',#350,#335,#417,.T.);
#284=EDGE_CURVE('',#349,#336,#418,.T.);
#285=EDGE_CURVE('',#348,#337,#419,.T.);
#286=EDGE_CURVE('',#358,#359,#420,.T.);
#287=EDGE_CURVE('',#358,#325,#421,.T.);
#288=EDGE_CURVE('',#360,#324,#422,.T.);
#289=EDGE_CURVE('',#359,#360,#26,.F.);
#290=EDGE_CURVE('',#361,#362,#27,.F.);
#291=EDGE_CURVE('',#362,#363,#423,.T.);
#292=EDGE_CURVE('',#363,#360,#28,.F.);
#293=EDGE_CURVE('',#361,#327,#424,.T.);
#294=EDGE_CURVE('',#364,#365,#425,.T.);
#295=EDGE_CURVE('',#365,#361,#29,.F.);
#296=EDGE_CURVE('',#364,#326,#426,.T.);
#297=EDGE_CURVE('',#366,#358,#427,.T.);
#298=EDGE_CURVE('',#366,#367,#39,.T.);
#299=EDGE_CURVE('',#368,#367,#40,.T.);
#300=EDGE_CURVE('',#368,#369,#41,.T.);
#301=EDGE_CURVE('',#364,#369,#428,.T.);
#302=EDGE_CURVE('',#370,#371,#42,.T.);
#303=EDGE_CURVE('',#371,#372,#43,.F.);
#304=EDGE_CURVE('',#372,#373,#44,.T.);
#305=EDGE_CURVE('',#373,#370,#45,.F.);
#306=EDGE_CURVE('',#374,#375,#46,.F.);
#307=EDGE_CURVE('',#374,#371,#47,.T.);
#308=EDGE_CURVE('',#370,#375,#48,.F.);
#309=EDGE_CURVE('',#376,#377,#49,.T.);
#310=EDGE_CURVE('',#377,#374,#50,.F.);
#311=EDGE_CURVE('',#375,#376,#51,.F.);
#312=EDGE_CURVE('',#366,#377,#52,.T.);
#313=EDGE_CURVE('',#376,#367,#53,.T.);
#314=EDGE_CURVE('',#377,#359,#429,.T.);
#315=EDGE_CURVE('',#363,#374,#430,.T.);
#316=EDGE_CURVE('',#371,#362,#431,.T.);
#317=EDGE_CURVE('',#365,#372,#432,.T.);
#318=EDGE_CURVE('',#368,#373,#54,.T.);
#319=EDGE_CURVE('',#372,#369,#55,.T.);
#320=VERTEX_POINT('',#822);
#321=VERTEX_POINT('',#823);
#322=VERTEX_POINT('',#825);
#323=VERTEX_POINT('',#827);
#324=VERTEX_POINT('',#830);
#325=VERTEX_POINT('',#831);
#326=VERTEX_POINT('',#833);
#327=VERTEX_POINT('',#835);
#328=VERTEX_POINT('',#839);
#329=VERTEX_POINT('',#841);
#330=VERTEX_POINT('',#848);
#331=VERTEX_POINT('',#853);
#332=VERTEX_POINT('',#865);
#333=VERTEX_POINT('',#866);
#334=VERTEX_POINT('',#868);
#335=VERTEX_POINT('',#870);
#336=VERTEX_POINT('',#872);
#337=VERTEX_POINT('',#874);
#338=VERTEX_POINT('',#876);
#339=VERTEX_POINT('',#878);
#340=VERTEX_POINT('',#880);
#341=VERTEX_POINT('',#882);
#342=VERTEX_POINT('',#884);
#343=VERTEX_POINT('',#886);
#344=VERTEX_POINT('',#921);
#345=VERTEX_POINT('',#924);
#346=VERTEX_POINT('',#925);
#347=VERTEX_POINT('',#927);
#348=VERTEX_POINT('',#929);
#349=VERTEX_POINT('',#931);
#350=VERTEX_POINT('',#933);
#351=VERTEX_POINT('',#935);
#352=VERTEX_POINT('',#937);
#353=VERTEX_POINT('',#939);
#354=VERTEX_POINT('',#941);
#355=VERTEX_POINT('',#943);
#356=VERTEX_POINT('',#945);
#357=VERTEX_POINT('',#948);
#358=VERTEX_POINT('',#976);
#359=VERTEX_POINT('',#977);
#360=VERTEX_POINT('',#980);
#361=VERTEX_POINT('',#984);
#362=VERTEX_POINT('',#985);
#363=VERTEX_POINT('',#987);
#364=VERTEX_POINT('',#992);
#365=VERTEX_POINT('',#993);
#366=VERTEX_POINT('',#998);
#367=VERTEX_POINT('',#1003);
#368=VERTEX_POINT('',#1013);
#369=VERTEX_POINT('',#1018);
#370=VERTEX_POINT('',#1054);
#371=VERTEX_POINT('',#1055);
#372=VERTEX_POINT('',#1066);
#373=VERTEX_POINT('',#1071);
#374=VERTEX_POINT('',#1126);
#375=VERTEX_POINT('',#1127);
#376=VERTEX_POINT('',#1178);
#377=VERTEX_POINT('',#1179);
#378=LINE('',#821,#433);
#379=LINE('',#824,#434);
#380=LINE('',#826,#435);
#381=LINE('',#828,#436);
#382=LINE('',#829,#437);
#383=LINE('',#832,#438);
#384=LINE('',#834,#439);
#385=LINE('',#836,#440);
#386=LINE('',#838,#441);
#387=LINE('',#840,#442);
#388=LINE('',#847,#443);
#389=LINE('',#854,#444);
#390=LINE('',#867,#445);
#391=LINE('',#871,#446);
#392=LINE('',#875,#447);
#393=LINE('',#879,#448);
#394=LINE('',#883,#449);
#395=LINE('',#887,#450);
#396=LINE('',#923,#451);
#397=LINE('',#926,#452);
#398=LINE('',#928,#453);
#399=LINE('',#930,#454);
#400=LINE('',#932,#455);
#401=LINE('',#934,#456);
#402=LINE('',#936,#457);
#403=LINE('',#938,#458);
#404=LINE('',#940,#459);
#405=LINE('',#942,#460);
#406=LINE('',#944,#461);
#407=LINE('',#946,#462);
#408=LINE('',#950,#463);
#409=LINE('',#951,#464);
#410=LINE('',#953,#465);
#411=LINE('',#955,#466);
#412=LINE('',#957,#467);
#413=LINE('',#959,#468);
#414=LINE('',#961,#469);
#415=LINE('',#964,#470);
#416=LINE('',#966,#471);
#417=LINE('',#968,#472);
#418=LINE('',#970,#473);
#419=LINE('',#972,#474);
#420=LINE('',#975,#475);
#421=LINE('',#978,#476);
#422=LINE('',#979,#477);
#423=LINE('',#986,#478);
#424=LINE('',#989,#479);
#425=LINE('',#991,#480);
#426=LINE('',#995,#481);
#427=LINE('',#997,#482);
#428=LINE('',#1019,#483);
#429=LINE('',#1223,#484);
#430=LINE('',#1225,#485);
#431=LINE('',#1227,#486);
#432=LINE('',#1229,#487);
#433=VECTOR('',#686,1.);
#434=VECTOR('',#687,1.);
#435=VECTOR('',#688,1.);
#436=VECTOR('',#689,1.);
#437=VECTOR('',#690,1.);
#438=VECTOR('',#691,1.);
#439=VECTOR('',#692,1.);
#440=VECTOR('',#693,1.);
#441=VECTOR('',#696,1.);
#442=VECTOR('',#697,1.);
#443=VECTOR('',#700,1.);
#444=VECTOR('',#701,1.);
#445=VECTOR('',#708,1.);
#446=VECTOR('',#711,1.);
#447=VECTOR('',#714,1.);
#448=VECTOR('',#717,1.);
#449=VECTOR('',#720,1.);
#450=VECTOR('',#723,1.);
#451=VECTOR('',#728,1.);
#452=VECTOR('',#729,1.);
#453=VECTOR('',#730,1.);
#454=VECTOR('',#731,1.);
#455=VECTOR('',#732,1.);
#456=VECTOR('',#733,1.);
#457=VECTOR('',#734,1.);
#458=VECTOR('',#735,1.);
#459=VECTOR('',#736,1.);
#460=VECTOR('',#737,1.);
#461=VECTOR('',#738,1.);
#462=VECTOR('',#739,1.);
#463=VECTOR('',#744,1.);
#464=VECTOR('',#745,1.);
#465=VECTOR('',#748,1.);
#466=VECTOR('',#751,1.);
#467=VECTOR('',#754,1.);
#468=VECTOR('',#757,1.);
#469=VECTOR('',#760,1.);
#470=VECTOR('',#765,1.);
#471=VECTOR('',#768,1.);
#472=VECTOR('',#771,1.);
#473=VECTOR('',#774,1.);
#474=VECTOR('',#777,1.);
#475=VECTOR('',#782,1.);
#476=VECTOR('',#783,1.);
#477=VECTOR('',#784,1.);
#478=VECTOR('',#791,1.);
#479=VECTOR('',#794,1.);
#480=VECTOR('',#797,1.);
#481=VECTOR('',#800,1.);
#482=VECTOR('',#803,1.);
#483=VECTOR('',#804,1.);
#484=VECTOR('',#807,1.);
#485=VECTOR('',#810,1.);
#486=VECTOR('',#813,1.);
#487=VECTOR('',#816,1.);
#488=EDGE_LOOP('',(#56,#57,#58,#59));
#489=EDGE_LOOP('',(#60,#61,#62,#63));
#490=EDGE_LOOP('',(#64,#65,#66,#67));
#491=EDGE_LOOP('',(#68,#69,#70,#71));
#492=EDGE_LOOP('',(#72,#73,#74,#75));
#493=EDGE_LOOP('',(#76,#77,#78,#79,#80,#81,#82,#83,#84,#85,#86,#87));
#494=EDGE_LOOP('',(#88,#89,#90,#91));
#495=EDGE_LOOP('',(#92));
#496=EDGE_LOOP('',(#93,#94,#95,#96));
#497=EDGE_LOOP('',(#97,#98,#99,#100,#101,#102,#103,#104,#105,#106,#107,
#108));
#498=EDGE_LOOP('',(#109));
#499=EDGE_LOOP('',(#110,#111,#112,#113));
#500=EDGE_LOOP('',(#114,#115,#116,#117));
#501=EDGE_LOOP('',(#118,#119,#120,#121));
#502=EDGE_LOOP('',(#122,#123,#124,#125));
#503=EDGE_LOOP('',(#126,#127,#128,#129));
#504=EDGE_LOOP('',(#130,#131,#132,#133));
#505=EDGE_LOOP('',(#134));
#506=EDGE_LOOP('',(#135));
#507=EDGE_LOOP('',(#136,#137,#138,#139));
#508=EDGE_LOOP('',(#140,#141,#142,#143));
#509=EDGE_LOOP('',(#144,#145,#146,#147));
#510=EDGE_LOOP('',(#148,#149,#150,#151));
#511=EDGE_LOOP('',(#152,#153,#154,#155));
#512=EDGE_LOOP('',(#156,#157,#158,#159));
#513=EDGE_LOOP('',(#160,#161,#162,#163,#164));
#514=EDGE_LOOP('',(#165,#166,#167,#168,#169,#170));
#515=EDGE_LOOP('',(#171,#172,#173,#174,#175));
#516=EDGE_LOOP('',(#176,#177,#178,#179,#180,#181,#182,#183));
#517=EDGE_LOOP('',(#184,#185,#186,#187));
#518=EDGE_LOOP('',(#188,#189,#190,#191));
#519=EDGE_LOOP('',(#192,#193,#194,#195));
#520=EDGE_LOOP('',(#196,#197,#198,#199));
#521=EDGE_LOOP('',(#200,#201,#202,#203));
#522=EDGE_LOOP('',(#204,#205,#206,#207,#208));
#523=EDGE_LOOP('',(#209,#210,#211,#212));
#524=EDGE_LOOP('',(#213,#214,#215,#216,#217));
#525=EDGE_LOOP('',(#218,#219,#220,#221));
#526=EDGE_LOOP('',(#222,#223,#224,#225));
#527=EDGE_LOOP('',(#226,#227,#228,#229,#230,#231));
#528=FACE_BOUND('',#488,.T.);
#529=FACE_BOUND('',#489,.T.);
#530=FACE_BOUND('',#490,.T.);
#531=FACE_BOUND('',#491,.T.);
#532=FACE_BOUND('',#492,.T.);
#533=FACE_BOUND('',#493,.T.);
#534=FACE_BOUND('',#494,.T.);
#535=FACE_BOUND('',#495,.T.);
#536=FACE_BOUND('',#496,.T.);
#537=FACE_BOUND('',#497,.T.);
#538=FACE_BOUND('',#498,.T.);
#539=FACE_BOUND('',#499,.T.);
#540=FACE_BOUND('',#500,.T.);
#541=FACE_BOUND('',#501,.T.);
#542=FACE_BOUND('',#502,.T.);
#543=FACE_BOUND('',#503,.T.);
#544=FACE_BOUND('',#504,.T.);
#545=FACE_BOUND('',#505,.T.);
#546=FACE_BOUND('',#506,.T.);
#547=FACE_BOUND('',#507,.T.);
#548=FACE_BOUND('',#508,.T.);
#549=FACE_BOUND('',#509,.T.);
#550=FACE_BOUND('',#510,.T.);
#551=FACE_BOUND('',#511,.T.);
#552=FACE_BOUND('',#512,.T.);
#553=FACE_BOUND('',#513,.T.);
#554=FACE_BOUND('',#514,.T.);
#555=FACE_BOUND('',#515,.T.);
#556=FACE_BOUND('',#516,.T.);
#557=FACE_BOUND('',#517,.T.);
#558=FACE_BOUND('',#518,.T.);
#559=FACE_BOUND('',#519,.T.);
#560=FACE_BOUND('',#520,.T.);
#561=FACE_BOUND('',#521,.T.);
#562=FACE_BOUND('',#522,.T.);
#563=FACE_BOUND('',#523,.T.);
#564=FACE_BOUND('',#524,.T.);
#565=FACE_BOUND('',#525,.T.);
#566=FACE_BOUND('',#526,.T.);
#567=FACE_BOUND('',#527,.T.);
#568=PLANE('',#642);
#569=PLANE('',#643);
#570=PLANE('',#644);
#571=PLANE('',#645);
#572=PLANE('',#653);
#573=PLANE('',#654);
#574=PLANE('',#656);
#575=PLANE('',#657);
#576=PLANE('',#658);
#577=PLANE('',#659);
#578=PLANE('',#660);
#579=PLANE('',#661);
#580=PLANE('',#663);
#581=PLANE('',#664);
#582=PLANE('',#665);
#583=PLANE('',#666);
#584=PLANE('',#667);
#585=PLANE('',#668);
#586=PLANE('',#669);
#587=PLANE('',#671);
#588=PLANE('',#674);
#589=PLANE('',#676);
#590=PLANE('',#677);
#591=PLANE('',#679);
#592=PLANE('',#681);
#593=ADVANCED_FACE('',(#528,#529),#568,.F.);
#594=ADVANCED_FACE('',(#530),#569,.F.);
#595=ADVANCED_FACE('',(#531),#570,.F.);
#596=ADVANCED_FACE('',(#532),#571,.F.);
#597=ADVANCED_FACE('',(#533),#30,.T.);
#598=ADVANCED_FACE('',(#534),#572,.F.);
#599=ADVANCED_FACE('',(#535,#536),#13,.F.);
#600=ADVANCED_FACE('',(#537,#538),#573,.F.);
#601=ADVANCED_FACE('',(#539),#574,.T.);
#602=ADVANCED_FACE('',(#540),#575,.T.);
#603=ADVANCED_FACE('',(#541),#576,.T.);
#604=ADVANCED_FACE('',(#542),#577,.T.);
#605=ADVANCED_FACE('',(#543),#578,.T.);
#606=ADVANCED_FACE('',(#544),#579,.T.);
#607=ADVANCED_FACE('',(#545,#546),#31,.T.);
#608=ADVANCED_FACE('',(#547),#580,.T.);
#609=ADVANCED_FACE('',(#548),#581,.T.);
#610=ADVANCED_FACE('',(#549),#582,.T.);
#611=ADVANCED_FACE('',(#550),#583,.T.);
#612=ADVANCED_FACE('',(#551),#584,.T.);
#613=ADVANCED_FACE('',(#552),#585,.T.);
#614=ADVANCED_FACE('',(#553),#586,.T.);
#615=ADVANCED_FACE('',(#554),#587,.F.);
#616=ADVANCED_FACE('',(#555),#588,.F.);
#617=ADVANCED_FACE('',(#556),#589,.T.);
#618=ADVANCED_FACE('',(#557),#14,.F.);
#619=ADVANCED_FACE('',(#558),#15,.F.);
#620=ADVANCED_FACE('',(#559),#16,.F.);
#621=ADVANCED_FACE('',(#560),#17,.F.);
#622=ADVANCED_FACE('',(#561),#590,.T.);
#623=ADVANCED_FACE('',(#562),#32,.T.);
#624=ADVANCED_FACE('',(#563),#591,.T.);
#625=ADVANCED_FACE('',(#564),#33,.T.);
#626=ADVANCED_FACE('',(#565),#18,.F.);
#627=ADVANCED_FACE('',(#566),#592,.T.);
#628=ADVANCED_FACE('',(#567),#19,.T.);
#629=CLOSED_SHELL('',(#593,#594,#595,#596,#597,#598,#599,#600,#601,#602,
#603,#604,#605,#606,#607,#608,#609,#610,#611,#612,#613,#614,#615,#616,#617,
#618,#619,#620,#621,#622,#623,#624,#625,#626,#627,#628));
#630=STYLED_ITEM('',(#631),#638);
#631=PRESENTATION_STYLE_ASSIGNMENT((#632));
#632=SURFACE_STYLE_USAGE(.BOTH.,#633);
#633=SURFACE_SIDE_STYLE('',(#634));
#634=SURFACE_STYLE_FILL_AREA(#635);
#635=FILL_AREA_STYLE('',(#636));
#636=FILL_AREA_STYLE_COLOUR('',#637);
#637=DRAUGHTING_PRE_DEFINED_COLOUR('white');
#638=MANIFOLD_SOLID_BREP('Cherry MX Keycap',#629);
#639=SHAPE_DEFINITION_REPRESENTATION(#1287,#640);
#640=SHAPE_REPRESENTATION('Cherry MX Keycap',(#641),#1282);
#641=AXIS2_PLACEMENT_3D('',#819,#682,#683);
#642=AXIS2_PLACEMENT_3D('',#820,#684,#685);
#643=AXIS2_PLACEMENT_3D('',#837,#694,#695);
#644=AXIS2_PLACEMENT_3D('',#846,#698,#699);
#645=AXIS2_PLACEMENT_3D('',#855,#702,#703);
#646=AXIS2_PLACEMENT_3D('',#863,#704,#705);
#647=AXIS2_PLACEMENT_3D('',#864,#706,#707);
#648=AXIS2_PLACEMENT_3D('',#869,#709,#710);
#649=AXIS2_PLACEMENT_3D('',#873,#712,#713);
#650=AXIS2_PLACEMENT_3D('',#877,#715,#716);
#651=AXIS2_PLACEMENT_3D('',#881,#718,#719);
#652=AXIS2_PLACEMENT_3D('',#885,#721,#722);
#653=AXIS2_PLACEMENT_3D('',#888,#724,#725);
#654=AXIS2_PLACEMENT_3D('',#922,#726,#727);
#655=AXIS2_PLACEMENT_3D('',#947,#740,#741);
#656=AXIS2_PLACEMENT_3D('',#949,#742,#743);
#657=AXIS2_PLACEMENT_3D('',#952,#746,#747);
#658=AXIS2_PLACEMENT_3D('',#954,#749,#750);
#659=AXIS2_PLACEMENT_3D('',#956,#752,#753);
#660=AXIS2_PLACEMENT_3D('',#958,#755,#756);
#661=AXIS2_PLACEMENT_3D('',#960,#758,#759);
#662=AXIS2_PLACEMENT_3D('',#962,#761,#762);
#663=AXIS2_PLACEMENT_3D('',#963,#763,#764);
#664=AXIS2_PLACEMENT_3D('',#965,#766,#767);
#665=AXIS2_PLACEMENT_3D('',#967,#769,#770);
#666=AXIS2_PLACEMENT_3D('',#969,#772,#773);
#667=AXIS2_PLACEMENT_3D('',#971,#775,#776);
#668=AXIS2_PLACEMENT_3D('',#973,#778,#779);
#669=AXIS2_PLACEMENT_3D('',#974,#780,#781);
#670=AXIS2_PLACEMENT_3D('',#981,#785,#786);
#671=AXIS2_PLACEMENT_3D('',#982,#787,#788);
#672=AXIS2_PLACEMENT_3D('',#983,#789,#790);
#673=AXIS2_PLACEMENT_3D('',#988,#792,#793);
#674=AXIS2_PLACEMENT_3D('',#990,#795,#796);
#675=AXIS2_PLACEMENT_3D('',#994,#798,#799);
#676=AXIS2_PLACEMENT_3D('',#996,#801,#802);
#677=AXIS2_PLACEMENT_3D('',#1222,#805,#806);
#678=AXIS2_PLACEMENT_3D('',#1224,#808,#809);
#679=AXIS2_PLACEMENT_3D('',#1226,#811,#812);
#680=AXIS2_PLACEMENT_3D('',#1228,#814,#815);
#681=AXIS2_PLACEMENT_3D('',#1258,#817,#818);
#682=DIRECTION('',(0.,0.,1.));
#683=DIRECTION('',(1.,0.,0.));
#684=DIRECTION('',(0.,1.,0.));
#685=DIRECTION('',(0.,0.,1.));
#686=DIRECTION('',(-1.,0.,0.));
#687=DIRECTION('',(0.,0.,1.));
#688=DIRECTION('',(1.,0.,-2.61135303657282E-17));
#689=DIRECTION('',(0.,0.,-1.));
#690=DIRECTION('',(0.,0.,-1.));
#691=DIRECTION('',(1.,0.,0.));
#692=DIRECTION('',(0.,0.,-1.));
#693=DIRECTION('',(1.,0.,0.));
#694=DIRECTION('',(-0.971615138247656,0.236567164095081,0.));
#695=DIRECTION('',(0.,0.,1.));
#696=DIRECTION('',(0.224114776155613,0.920471402067698,-0.32016396593659));
#697=DIRECTION('',(0.236567164095081,0.971615138247656,-1.87601651749026E-16));
#698=DIRECTION('',(0.971615138247656,0.236567164095081,0.));
#699=DIRECTION('',(0.,0.,-1.));
#700=DIRECTION('',(-0.224114776155613,0.920471402067698,-0.32016396593659));
#701=DIRECTION('',(0.236567164095081,-0.971615138247656,1.87601651749026E-16));
#702=DIRECTION('',(0.,-1.93082265152201E-16,-1.));
#703=DIRECTION('',(-1.,0.,0.));
#704=DIRECTION('',(-8.6022703382155E-14,0.0420872172746653,-0.999113940520337));
#705=DIRECTION('',(-8.34862337585136E-16,-0.999113940520337,-0.0420872172746653));
#706=DIRECTION('',(0.,0.,-1.));
#707=DIRECTION('',(-2.04391520638588E-12,1.,0.));
#708=DIRECTION('',(-8.6022703382155E-14,0.0420872172746653,-0.999113940520337));
#709=DIRECTION('',(-7.65671051465625E-16,0.,-1.));
#710=DIRECTION('',(-2.025738841425E-12,1.,1.55104958870864E-27));
#711=DIRECTION('',(-8.6022703382155E-14,0.0420872172746653,-0.999113940520337));
#712=DIRECTION('',(1.91417762866406E-15,0.,1.));
#713=DIRECTION('',(-1.99847429398368E-12,1.,3.82543478500377E-27));
#714=DIRECTION('',(-8.6022703382155E-14,0.0420872172746653,-0.999113940520337));
#715=DIRECTION('',(0.,0.,1.));
#716=DIRECTION('',(-2.04391520638588E-12,1.,0.));
#717=DIRECTION('',(-8.6022703382155E-14,0.0420872172746653,-0.999113940520337));
#718=DIRECTION('',(1.91417762866406E-15,0.,1.));
#719=DIRECTION('',(-1.99847429398368E-12,1.,3.82543478500377E-27));
#720=DIRECTION('',(-8.6022703382155E-14,0.0420872172746653,-0.999113940520337));
#721=DIRECTION('',(-7.65671051465625E-16,0.,-1.));
#722=DIRECTION('',(-2.025738841425E-12,1.,1.55104958870864E-27));
#723=DIRECTION('',(-8.6022703382155E-14,0.0420872172746653,-0.999113940520337));
#724=DIRECTION('',(2.46641457811193E-17,0.328520624941273,0.944496796706159));
#725=DIRECTION('',(1.,0.,-2.61135303657282E-17));
#726=DIRECTION('',(0.,1.,0.));
#727=DIRECTION('',(0.,0.,1.));
#728=DIRECTION('',(2.9738116731031E-16,0.,1.));
#729=DIRECTION('',(1.,0.,0.));
#730=DIRECTION('',(-1.98254111540207E-16,0.,-1.));
#731=DIRECTION('',(1.,0.,-1.91417762866406E-15));
#732=DIRECTION('',(0.,0.,-1.));
#733=DIRECTION('',(-1.,0.,7.65671051465625E-16));
#734=DIRECTION('',(-4.95635278850516E-16,0.,-1.));
#735=DIRECTION('',(-1.,0.,0.));
#736=DIRECTION('',(-9.91270557701032E-16,0.,1.));
#737=DIRECTION('',(-1.,0.,-4.78544407166016E-16));
#738=DIRECTION('',(0.,0.,1.));
#739=DIRECTION('',(1.,0.,1.38777878078145E-15));
#740=DIRECTION('',(0.,1.,0.));
#741=DIRECTION('',(1.,0.,0.));
#742=DIRECTION('',(-1.,0.,0.));
#743=DIRECTION('',(0.,0.,1.));
#744=DIRECTION('',(0.,1.,0.));
#745=DIRECTION('',(0.,1.,0.));
#746=DIRECTION('',(1.91417762866406E-15,0.,1.));
#747=DIRECTION('',(1.,0.,-1.91417762866406E-15));
#748=DIRECTION('',(0.,1.,0.));
#749=DIRECTION('',(-1.,0.,0.));
#750=DIRECTION('',(0.,0.,1.));
#751=DIRECTION('',(0.,1.,0.));
#752=DIRECTION('',(-7.65671051465625E-16,0.,-1.));
#753=DIRECTION('',(-1.,0.,7.65671051465625E-16));
#754=DIRECTION('',(0.,1.,0.));
#755=DIRECTION('',(-1.,0.,0.));
#756=DIRECTION('',(0.,0.,1.));
#757=DIRECTION('',(0.,1.,0.));
#758=DIRECTION('',(0.,0.,1.));
#759=DIRECTION('',(1.,0.,0.));
#760=DIRECTION('',(0.,1.,0.));
#761=DIRECTION('',(0.,1.,0.));
#762=DIRECTION('',(1.,0.,0.));
#763=DIRECTION('',(0.,0.,-1.));
#764=DIRECTION('',(-1.,0.,0.));
#765=DIRECTION('',(0.,1.,0.));
#766=DIRECTION('',(1.,0.,0.));
#767=DIRECTION('',(0.,0.,-1.));
#768=DIRECTION('',(0.,1.,0.));
#769=DIRECTION('',(-7.65671051465625E-16,0.,-1.));
#770=DIRECTION('',(-1.,0.,7.65671051465625E-16));
#771=DIRECTION('',(0.,1.,0.));
#772=DIRECTION('',(1.,0.,0.));
#773=DIRECTION('',(0.,0.,-1.));
#774=DIRECTION('',(0.,1.,0.));
#775=DIRECTION('',(1.91417762866406E-15,0.,1.));
#776=DIRECTION('',(1.,0.,-1.91417762866406E-15));
#777=DIRECTION('',(0.,1.,0.));
#778=DIRECTION('',(1.,0.,0.));
#779=DIRECTION('',(0.,0.,-1.));
#780=DIRECTION('',(-1.,0.,0.));
#781=DIRECTION('',(0.,0.,1.));
#782=DIRECTION('',(0.,0.,1.));
#783=DIRECTION('',(0.,-1.,0.));
#784=DIRECTION('',(0.,-1.,0.));
#785=DIRECTION('',(-1.,0.,0.));
#786=DIRECTION('',(0.,-0.944496796706159,0.328520624941273));
#787=DIRECTION('',(0.,0.,-1.));
#788=DIRECTION('',(-1.,0.,0.));
#789=DIRECTION('',(0.,0.,-1.));
#790=DIRECTION('',(0.236567164095081,-0.971615138247656,0.));
#791=DIRECTION('',(-1.,7.50763998014685E-17,0.));
#792=DIRECTION('',(0.,0.,-1.));
#793=DIRECTION('',(-0.236567164095081,-0.971615138247656,0.));
#794=DIRECTION('',(0.,-1.,0.));
#795=DIRECTION('',(-1.,0.,0.));
#796=DIRECTION('',(0.,0.,1.));
#797=DIRECTION('',(0.,0.,1.));
#798=DIRECTION('',(-1.,0.,0.));
#799=DIRECTION('',(0.,-0.944496796706159,0.328520624941273));
#800=DIRECTION('',(0.,-1.,0.));
#801=DIRECTION('',(0.,0.,-1.));
#802=DIRECTION('',(-1.,0.,0.));
#803=DIRECTION('',(-0.236567164095081,-0.971615138247656,0.));
#804=DIRECTION('',(-0.236567164095081,0.971615138247656,0.));
#805=DIRECTION('',(-0.971615138247656,0.236567164095081,0.));
#806=DIRECTION('',(0.,0.,1.));
#807=DIRECTION('',(-0.224114776155613,-0.920471402067698,0.32016396593659));
#808=DIRECTION('',(-0.224114776155613,-0.920471402067698,0.320163965936591));
#809=DIRECTION('',(-0.661800162282727,0.384900539078389,0.64332893625246));
#810=DIRECTION('',(0.224114776155613,0.920471402067698,-0.32016396593659));
#811=DIRECTION('',(2.46641457811193E-17,0.328520624941273,0.944496796706159));
#812=DIRECTION('',(1.,0.,-2.61135303657282E-17));
#813=DIRECTION('',(0.224114776155613,-0.920471402067698,0.32016396593659));
#814=DIRECTION('',(0.224114776155613,-0.920471402067698,0.320163965936591));
#815=DIRECTION('',(0.661800162282726,0.384900539078389,0.643328936252461));
#816=DIRECTION('',(-0.224114776155613,0.920471402067698,-0.32016396593659));
#817=DIRECTION('',(0.971615138247656,0.236567164095081,0.));
#818=DIRECTION('',(0.,0.,-1.));
#819=CARTESIAN_POINT('',(0.,0.,0.));
#820=CARTESIAN_POINT('',(0.,1.51961776495569E-17,1.38777878078145E-17));
#821=CARTESIAN_POINT('',(-0.0031,1.51961776495569E-17,-0.00775));
#822=CARTESIAN_POINT('',(0.00771348237507452,1.51961776495569E-17,-0.00775));
#823=CARTESIAN_POINT('',(-0.00771348237507452,1.51961776495569E-17,-0.00775));
#824=CARTESIAN_POINT('',(-0.00771348237507455,1.51961776495569E-17,0.0025));
#825=CARTESIAN_POINT('',(-0.00771348237507452,1.44560289664735E-17,0.00767654394979503));
#826=CARTESIAN_POINT('',(0.0031,1.6306400674182E-17,0.00767654394979503));
#827=CARTESIAN_POINT('',(0.00771348237507452,1.44560289664735E-17,0.00767654394979503));
#828=CARTESIAN_POINT('',(0.00771348237507452,1.51961776495569E-17,-0.0045));
#829=CARTESIAN_POINT('',(-0.0078,1.51961776495569E-17,1.38777878078145E-17));
#830=CARTESIAN_POINT('',(-0.0078,1.51961776495569E-17,0.0078));
#831=CARTESIAN_POINT('',(-0.0078,1.51961776495569E-17,-0.0078));
#832=CARTESIAN_POINT('',(0.,1.51961776495569E-17,-0.0078));
#833=CARTESIAN_POINT('',(0.0078,1.51961776495569E-17,-0.0078));
#834=CARTESIAN_POINT('',(0.0078,1.51961776495569E-17,1.38777878078145E-17));
#835=CARTESIAN_POINT('',(0.0078,1.51961776495569E-17,0.0078));
#836=CARTESIAN_POINT('',(0.,1.51961776495569E-17,0.0078));
#837=CARTESIAN_POINT('',(-0.00498548107719044,0.0112042910448811,0.005));
#838=CARTESIAN_POINT('',(-0.00476165334016976,0.0121235835362161,0.00345964532850248));
#839=CARTESIAN_POINT('',(-0.00549916185218993,0.00909453071893357,0.00451322891712248));
#840=CARTESIAN_POINT('',(-0.00498548107719044,0.0112042910448811,-0.00775));
#841=CARTESIAN_POINT('',(-0.00537920983578133,0.00958718903828253,-0.00775));
#842=CARTESIAN_POINT('',(-0.00549916185237942,0.0090945307189798,0.00451322891712436));
#843=CARTESIAN_POINT('',(-0.0054592336751282,0.0092585214469759,0.000425476210499633));
#844=CARTESIAN_POINT('',(-0.0054192481333041,0.00942274777869996,-0.00366226646996459));
#845=CARTESIAN_POINT('',(-0.00537921024575433,0.00958718910256507,-0.00775000000139813));
#846=CARTESIAN_POINT('',(0.00498548107719044,0.0112042910448811,-0.009));
#847=CARTESIAN_POINT('',(0.00457078909518288,0.0129074902566979,0.00318698212137837));
#848=CARTESIAN_POINT('',(0.00549916185219973,0.00909453071895006,0.00451322891711675));
#849=CARTESIAN_POINT('',(0.00537921110512424,0.00958718558358919,-0.00775000043581635));
#850=CARTESIAN_POINT('',(0.00541924843188325,0.00942274656297184,-0.00366226671142155));
#851=CARTESIAN_POINT('',(0.00545923367402355,0.00925852145074504,0.000425476115846378));
#852=CARTESIAN_POINT('',(0.00549916185219973,0.00909453071895001,0.0045132289171186));
#853=CARTESIAN_POINT('',(0.00537921109985906,0.00958718559463501,-0.00775000043535104));
#854=CARTESIAN_POINT('',(0.00463850413379691,0.0126293749195332,-0.00775));
#855=CARTESIAN_POINT('',(-0.0062,0.0115,-0.00775));
#856=CARTESIAN_POINT('',(-0.00537920983998649,0.00958718903152883,-0.00775000000028449));
#857=CARTESIAN_POINT('',(-0.00449264248657443,0.00941552206935411,-0.00775000000028449));
#858=CARTESIAN_POINT('',(-0.00270146223372966,0.00924962014609156,-0.00774999999986792));
#859=CARTESIAN_POINT('',(9.23143051298384E-8,0.00916800503264711,-0.00775000000003556));
#860=CARTESIAN_POINT('',(0.00270172509023203,0.00924929812828801,-0.00774999999998984));
#861=CARTESIAN_POINT('',(0.0044926447198588,0.00941546515890583,-0.00775));
#862=CARTESIAN_POINT('',(0.00537921110631831,0.00958718555337668,-0.00775));
#863=CARTESIAN_POINT('',(2.77555756156289E-17,0.0544681939568284,0.00190076397055333));
#864=CARTESIAN_POINT('',(5.55111512312578E-17,0.0544640136845257,0.002));
#865=CARTESIAN_POINT('',(0.000550000293720071,0.00878817090559842,0.002));
#866=CARTESIAN_POINT('',(-0.000550000293720016,0.00878817090559842,0.002));
#867=CARTESIAN_POINT('',(-0.000550000587440203,0.00887325834824149,-1.99018151562924E-5));
#868=CARTESIAN_POINT('',(-0.000550000293720071,0.00884714526457278,0.000600000000000017));
#869=CARTESIAN_POINT('',(-8.32667268468867E-17,0.0545229880435001,0.000600000000000017));
#870=CARTESIAN_POINT('',(-0.002,0.00888771054067272,0.000600000000000017));
#871=CARTESIAN_POINT('',(-0.002,0.00888771091295746,0.000599991162284014));
#872=CARTESIAN_POINT('',(-0.00200000000000006,0.00893825999122216,-0.000599999999999989));
#873=CARTESIAN_POINT('',(-1.66533453693773E-16,0.0545735374940495,-0.000599999999999989));
#874=CARTESIAN_POINT('',(-0.000550000293720016,0.00889769471512223,-0.000599999999999989));
#875=CARTESIAN_POINT('',(-0.000550000587439981,0.00887325834824149,-1.99018151562924E-5));
#876=CARTESIAN_POINT('',(-0.000550000293720071,0.00895666907409658,-0.002));
#877=CARTESIAN_POINT('',(-3.05311331771918E-16,0.0546325118530239,-0.002));
#878=CARTESIAN_POINT('',(0.000550000293720016,0.00895666907409659,-0.002));
#879=CARTESIAN_POINT('',(0.000550000587440203,0.00887325834824149,-1.99018151563896E-5));
#880=CARTESIAN_POINT('',(0.000550000293720071,0.00889769471512223,-0.000599999999999989));
#881=CARTESIAN_POINT('',(-1.66533453693773E-16,0.0545735374940495,-0.000599999999999989));
#882=CARTESIAN_POINT('',(0.002,0.00893825999122216,-0.000599999999999989));
#883=CARTESIAN_POINT('',(0.002,0.0089382603635069,-0.000600008837715993));
#884=CARTESIAN_POINT('',(0.00200000000000006,0.00888771054067271,0.000600000000000017));
#885=CARTESIAN_POINT('',(-8.32667268468867E-17,0.0545229880435001,0.000600000000000017));
#886=CARTESIAN_POINT('',(0.000550000293720016,0.00884714526457278,0.000600000000000017));
#887=CARTESIAN_POINT('',(0.000550000587439981,0.00887325834824149,-1.99018151563896E-5));
#888=CARTESIAN_POINT('',(0.0062,0.0110893492188234,0.00381937900411731));
#889=CARTESIAN_POINT('',(0.00549916185238036,0.00909453071898711,0.00451322891711832));
#890=CARTESIAN_POINT('',(0.00459590107720752,0.00890617934626441,0.00457874243806535));
#891=CARTESIAN_POINT('',(0.00276488513866859,0.0087304027192931,0.00463988213438202));
#892=CARTESIAN_POINT('',(2.47893625775085E-9,0.00864327508716022,0.00467018739774111));
#893=CARTESIAN_POINT('',(-0.00276488256345882,0.00873082628908513,0.0046397348057649));
#894=CARTESIAN_POINT('',(-0.00459564495616713,0.00890612593893713,0.00457876101451255));
#895=CARTESIAN_POINT('',(-0.00549916185237229,0.00909453071898607,0.00451322891710422));
#896=CARTESIAN_POINT('',(-0.00554682774603271,0.0090941118929642,0.00475845225675958));
#897=CARTESIAN_POINT('',(-0.00554682774603268,0.00962410705871884,-0.00782317211289423));
#898=CARTESIAN_POINT('',(-0.00488081671078,0.00895424818010334,0.00475256056189547));
#899=CARTESIAN_POINT('',(-0.00488081671077997,0.00948424334585798,-0.00782906380775833));
#900=CARTESIAN_POINT('',(-0.00320473290911591,0.00874467981752362,0.00474373259057801));
#901=CARTESIAN_POINT('',(-0.00320473290911588,0.00927467498327826,-0.0078378917790758));
#902=CARTESIAN_POINT('',(1.13836849994957E-6,0.00863131679601211,0.00473895722520299));
#903=CARTESIAN_POINT('',(1.13836849997712E-6,0.00916131196176674,-0.00784266714445082));
#904=CARTESIAN_POINT('',(0.0032027396421268,0.008744041223624,0.00474370569010239));
#905=CARTESIAN_POINT('',(0.00320273964212683,0.00927403638937863,-0.00783791867955142));
#906=CARTESIAN_POINT('',(0.0048808579691643,0.00895427277238912,0.00475256159783425));
#907=CARTESIAN_POINT('',(0.00488085796916433,0.00948426793814375,-0.00782906277181955));
#908=CARTESIAN_POINT('',(0.00554682622100862,0.00909411097554144,0.00475845221811356));
#909=CARTESIAN_POINT('',(0.00554682622100865,0.00962410614129608,-0.00782317215154025));
#910=CARTESIAN_POINT('',(-0.00117357676878603,0.00898558905441951,-0.00287357087845551));
#911=CARTESIAN_POINT('',(-0.00286404786316164,0.00900998947122395,-0.0011966776020413));
#912=CARTESIAN_POINT('',(-0.00286917318596663,0.00891055114478702,0.00117778059196397));
#913=CARTESIAN_POINT('',(-0.00120305773407956,0.00874504000410103,0.00285974797775436));
#914=CARTESIAN_POINT('',(0.00117535613433955,0.00874465612588757,0.00287229911472876));
#915=CARTESIAN_POINT('',(0.00285954429037776,0.00890829292295628,0.00120152071795421));
#916=CARTESIAN_POINT('',(0.00287416009150949,0.00900930390291953,-0.00116905379239808));
#917=CARTESIAN_POINT('',(0.00120345361110699,0.00898703348978453,-0.00286073426186202));
#918=CARTESIAN_POINT('',(-0.00117357676878603,0.00898558905441951,-0.00287357087845551));
#919=CARTESIAN_POINT('',(-0.00286404786316164,0.00900998947122395,-0.0011966776020413));
#920=CARTESIAN_POINT('',(-0.00286917318596663,0.00891055114478702,0.00117778059196397));
#921=CARTESIAN_POINT('',(-0.00258315690120733,0.00898934968068139,-0.00108041678242468));
#922=CARTESIAN_POINT('',(0.,1.51961776495569E-17,1.38777878078145E-17));
#923=CARTESIAN_POINT('',(0.00055,1.51961776495569E-17,-0.000599999999999989));
#924=CARTESIAN_POINT('',(0.00055,1.51961776495569E-17,-0.002));
#925=CARTESIAN_POINT('',(0.00055,1.51961776495569E-17,-0.000599999999999989));
#926=CARTESIAN_POINT('',(0.00055,1.51961776495569E-17,-0.002));
#927=CARTESIAN_POINT('',(-0.00055,1.51961776495569E-17,-0.002));
#928=CARTESIAN_POINT('',(-0.00055,1.51961776495569E-17,-0.002));
#929=CARTESIAN_POINT('',(-0.00055,1.51961776495569E-17,-0.000599999999999989));
#930=CARTESIAN_POINT('',(-0.00055,1.51961776495569E-17,-0.000599999999999989));
#931=CARTESIAN_POINT('',(-0.002,1.51961776495569E-17,-0.000599999999999989));
#932=CARTESIAN_POINT('',(-0.002,1.51961776495569E-17,-0.000599999999999989));
#933=CARTESIAN_POINT('',(-0.002,1.51961776495569E-17,0.000600000000000017));
#934=CARTESIAN_POINT('',(-0.002,1.51961776495569E-17,0.000600000000000017));
#935=CARTESIAN_POINT('',(-0.00055,1.51961776495569E-17,0.000600000000000017));
#936=CARTESIAN_POINT('',(-0.00055,1.51961776495569E-17,0.000600000000000017));
#937=CARTESIAN_POINT('',(-0.00055,1.51961776495569E-17,0.002));
#938=CARTESIAN_POINT('',(-0.00055,1.51961776495569E-17,0.002));
#939=CARTESIAN_POINT('',(0.00055,1.51961776495569E-17,0.002));
#940=CARTESIAN_POINT('',(0.00055,1.51961776495569E-17,0.002));
#941=CARTESIAN_POINT('',(0.00055,1.51961776495569E-17,0.000600000000000017));
#942=CARTESIAN_POINT('',(0.00055,1.51961776495569E-17,0.000600000000000017));
#943=CARTESIAN_POINT('',(0.002,1.51961776495569E-17,0.000600000000000017));
#944=CARTESIAN_POINT('',(0.002,1.51961776495569E-17,0.000600000000000017));
#945=CARTESIAN_POINT('',(0.002,1.51961776495569E-17,-0.000599999999999989));
#946=CARTESIAN_POINT('',(0.002,1.51961776495569E-17,-0.000599999999999989));
#947=CARTESIAN_POINT('',(0.,1.51961776495569E-17,1.38777878078145E-17));
#948=CARTESIAN_POINT('',(0.0028,1.51961776495569E-17,1.38777878078145E-17));
#949=CARTESIAN_POINT('',(0.00055,1.51961776495569E-17,-0.002));
#950=CARTESIAN_POINT('',(0.00055,1.51961776495569E-17,-0.002));
#951=CARTESIAN_POINT('',(0.00055,1.51961776495569E-17,-0.000599999999999989));
#952=CARTESIAN_POINT('',(-0.002,1.51961776495569E-17,-0.000599999999999989));
#953=CARTESIAN_POINT('',(0.002,1.51961776495569E-17,-0.000599999999999989));
#954=CARTESIAN_POINT('',(0.002,1.51961776495569E-17,-0.000599999999999989));
#955=CARTESIAN_POINT('',(0.002,1.51961776495569E-17,0.000600000000000017));
#956=CARTESIAN_POINT('',(-0.00055,1.51961776495569E-17,0.000600000000000017));
#957=CARTESIAN_POINT('',(0.00055,1.51961776495569E-17,0.000600000000000017));
#958=CARTESIAN_POINT('',(0.00055,1.51961776495569E-17,-0.002));
#959=CARTESIAN_POINT('',(0.00055,1.51961776495569E-17,0.002));
#960=CARTESIAN_POINT('',(-0.00055,1.51961776495569E-17,-0.002));
#961=CARTESIAN_POINT('',(-0.00055,1.51961776495569E-17,-0.002));
#962=CARTESIAN_POINT('',(0.,1.51961776495569E-17,1.38777878078145E-17));
#963=CARTESIAN_POINT('',(0.00055,1.51961776495569E-17,0.002));
#964=CARTESIAN_POINT('',(-0.00055,1.51961776495569E-17,0.002));
#965=CARTESIAN_POINT('',(-0.00055,1.51961776495569E-17,-0.000599999999999989));
#966=CARTESIAN_POINT('',(-0.00055,1.51961776495569E-17,0.000600000000000017));
#967=CARTESIAN_POINT('',(-0.00055,1.51961776495569E-17,0.000600000000000017));
#968=CARTESIAN_POINT('',(-0.002,1.51961776495569E-17,0.000600000000000017));
#969=CARTESIAN_POINT('',(-0.002,1.51961776495569E-17,0.000600000000000017));
#970=CARTESIAN_POINT('',(-0.002,1.51961776495569E-17,-0.000599999999999989));
#971=CARTESIAN_POINT('',(-0.002,1.51961776495569E-17,-0.000599999999999989));
#972=CARTESIAN_POINT('',(-0.00055,1.51961776495569E-17,-0.000599999999999989));
#973=CARTESIAN_POINT('',(-0.00055,1.51961776495569E-17,-0.000599999999999989));
#974=CARTESIAN_POINT('',(-0.0078,0.025,1.38777878078145E-17));
#975=CARTESIAN_POINT('',(-0.0078,0.00492857142857147,0.005));
#976=CARTESIAN_POINT('',(-0.0078,0.00492857142857153,-0.0078));
#977=CARTESIAN_POINT('',(-0.0078,0.00492857142857147,0.00630923367653989));
#978=CARTESIAN_POINT('',(-0.0078,0.025,-0.0078));
#979=CARTESIAN_POINT('',(-0.0078,0.025,0.0078));
#980=CARTESIAN_POINT('',(-0.0078,0.00305753634143829,0.0078));
#981=CARTESIAN_POINT('',(-0.0078,0.000701442089530572,0.00769725530260801));
#982=CARTESIAN_POINT('',(0.,0.025,0.0078));
#983=CARTESIAN_POINT('',(0.00787192128817441,0.000406051084528553,0.0078));
#984=CARTESIAN_POINT('',(0.0078,0.00305753634143828,0.0078));
#985=CARTESIAN_POINT('',(0.00721077353048011,0.00345,0.0078));
#986=CARTESIAN_POINT('',(0.0062,0.00345,0.0078));
#987=CARTESIAN_POINT('',(-0.00721077353048011,0.00345,0.0078));
#988=CARTESIAN_POINT('',(-0.00787192128817441,0.000406051084528545,0.0078));
#989=CARTESIAN_POINT('',(0.0078,0.025,0.0078));
#990=CARTESIAN_POINT('',(0.0078,0.025,1.38777878078145E-17));
#991=CARTESIAN_POINT('',(0.0078,0.00492857142857147,-0.009));
#992=CARTESIAN_POINT('',(0.0078,0.00492857142857153,-0.0078));
#993=CARTESIAN_POINT('',(0.0078,0.00492857142857146,0.00630923367653989));
#994=CARTESIAN_POINT('',(0.0078,0.000701442089530557,0.00769725530260801));
#995=CARTESIAN_POINT('',(0.0078,0.025,-0.0078));
#996=CARTESIAN_POINT('',(0.,0.025,-0.0078));
#997=CARTESIAN_POINT('',(-0.0062,0.0115,-0.0078));
#998=CARTESIAN_POINT('',(-0.00636457049945183,0.0108240854486801,-0.00780000000469917));
#999=CARTESIAN_POINT('',(-0.00636457049945183,0.0108240854486801,-0.00780000000234958));
#1000=CARTESIAN_POINT('',(-0.00632411675334179,0.0109902471328148,-0.00780000000234958));
#1001=CARTESIAN_POINT('',(-0.0061269075791791,0.0110944556040139,-0.00780000000000047));
#1002=CARTESIAN_POINT('',(-0.00596694213206475,0.011033959057255,-0.00780000000000047));
#1003=CARTESIAN_POINT('',(-0.00596694213206003,0.0110339590573086,-0.0078000000006577));
#1004=CARTESIAN_POINT('',(0.00596694213096463,0.0110339590602052,-0.0078));
#1005=CARTESIAN_POINT('',(0.00549485109526483,0.0108554308852574,-0.0078));
#1006=CARTESIAN_POINT('',(0.00450215757834473,0.0106989541136797,-0.0078));
#1007=CARTESIAN_POINT('',(0.00250695565288699,0.0104901660123469,-0.0078));
#1008=CARTESIAN_POINT('',(-2.01691646650262E-6,0.0104209892817832,-0.00779999999999999));
#1009=CARTESIAN_POINT('',(-0.00250522076555433,0.0104901281271533,-0.0078));
#1010=CARTESIAN_POINT('',(-0.00450073949859674,0.0106987399405806,-0.0078));
#1011=CARTESIAN_POINT('',(-0.00549456246278514,0.0108553217345426,-0.0078));
#1012=CARTESIAN_POINT('',(-0.00596694213134791,0.0110339590603502,-0.0078));
#1013=CARTESIAN_POINT('',(0.00596694213096463,0.0110339590602052,-0.0078));
#1014=CARTESIAN_POINT('',(0.00596694213206009,0.0110339590573086,-0.00780000000065768));
#1015=CARTESIAN_POINT('',(0.0061269038121377,0.0110944541794295,-0.00780000000065768));
#1016=CARTESIAN_POINT('',(0.00632411548822843,0.0109902523287158,-0.0078));
#1017=CARTESIAN_POINT('',(0.00636457049945091,0.0108240854486841,-0.0078));
#1018=CARTESIAN_POINT('',(0.00636457049945186,0.0108240854486801,-0.00780000000234957));
#1019=CARTESIAN_POINT('',(0.0062,0.0115,-0.0078));
#1020=CARTESIAN_POINT('',(0.00606616527783124,0.0105590708809159,0.00443307504489904));
#1021=CARTESIAN_POINT('',(0.00606739717353563,0.010553008165114,0.00458989394328861));
#1022=CARTESIAN_POINT('',(0.00601076481758125,0.0105150528999794,0.00484997976915619));
#1023=CARTESIAN_POINT('',(0.00578839361552938,0.0104261903618896,0.00511624708215744));
#1024=CARTESIAN_POINT('',(0.00560365415513983,0.0103730327094252,0.00518749716877484));
#1025=CARTESIAN_POINT('',(0.00550706611816657,0.0103491769165164,0.00519623424594132));
#1026=CARTESIAN_POINT('',(0.00614610368906329,0.0105942947326729,0.00443367458437198));
#1027=CARTESIAN_POINT('',(0.00614409769364882,0.0105859671984096,0.00460786044271463));
#1028=CARTESIAN_POINT('',(0.00607342110686268,0.0105369590805688,0.00488970289679204));
#1029=CARTESIAN_POINT('',(0.0058226192734826,0.0104332863183371,0.00517164771016521));
#1030=CARTESIAN_POINT('',(0.0056187848311143,0.0103743035808083,0.00524696159232385));
#1031=CARTESIAN_POINT('',(0.0055125131395011,0.0103479741309187,0.00525623162884871));
#1032=CARTESIAN_POINT('',(0.00633781339028994,0.0105898799433253,0.00443173102560246));
#1033=CARTESIAN_POINT('',(0.00632669102499253,0.0105844942238671,0.00464048380370404));
#1034=CARTESIAN_POINT('',(0.00621872032527795,0.0105270355915886,0.00496645262523791));
#1035=CARTESIAN_POINT('',(0.00590266660606362,0.0104085410995887,0.00528056235388792));
#1036=CARTESIAN_POINT('',(0.00565849728257112,0.010340252964474,0.00536419806985583));
#1037=CARTESIAN_POINT('',(0.00553223154749308,0.01030922825981,0.00537454798891281));
#1038=CARTESIAN_POINT('',(0.00645795083808573,0.0104405590577611,0.00442493808061957));
#1039=CARTESIAN_POINT('',(0.00644901895678746,0.0104488496814356,0.00464438044446448));
#1040=CARTESIAN_POINT('',(0.00633265555676771,0.0104166468742789,0.0049961247904626));
#1041=CARTESIAN_POINT('',(0.00597639690658042,0.0103142014015157,0.00534397487459845));
#1042=CARTESIAN_POINT('',(0.00570320231670865,0.0102453036120474,0.00543670238262782));
#1043=CARTESIAN_POINT('',(0.00556266027891461,0.0102115351854403,0.00544816167462946));
#1044=CARTESIAN_POINT('',(0.00647860079260665,0.0103557467446513,0.00442152052393016));
#1045=CARTESIAN_POINT('',(0.00647529455829549,0.0103693259206076,0.00463786589355809));
#1046=CARTESIAN_POINT('',(0.00636736563856066,0.0103500576944948,0.00499432604671639));
#1047=CARTESIAN_POINT('',(0.00600524663655838,0.0102589303711851,0.00535789177442163));
#1048=CARTESIAN_POINT('',(0.00572280467494848,0.0101909423227683,0.00545532440947337));
#1049=CARTESIAN_POINT('',(0.00557789336471176,0.0101564721093671,0.0054673140489158));
#1050=CARTESIAN_POINT('',(0.00550706611816657,0.0103491769165164,0.00519623424594132));
#1051=CARTESIAN_POINT('',(0.00551796016083563,0.010346771345321,0.0053162290117561));
#1052=CARTESIAN_POINT('',(0.00554742719311746,0.0102665982615135,0.00542900930034312));
#1053=CARTESIAN_POINT('',(0.00557789336471176,0.0101564721093671,0.0054673140489158));
#1054=CARTESIAN_POINT('',(0.00550706611816054,0.010349176916515,0.00519623424594071));
#1055=CARTESIAN_POINT('',(0.00557789336471176,0.0101564721093671,0.0054673140489158));
#1056=CARTESIAN_POINT('',(0.00647860079260663,0.0103557467446513,0.00442152052393016));
#1057=CARTESIAN_POINT('',(0.00647806275999844,0.0103579565213245,0.004456727001311));
#1058=CARTESIAN_POINT('',(0.00647587052520273,0.0103629234054242,0.00454983673162572));
#1059=CARTESIAN_POINT('',(0.00641926463195441,0.0103586167739929,0.0047995195205864));
#1060=CARTESIAN_POINT('',(0.00631618601364534,0.0103360022730082,0.00499918068491763));
#1061=CARTESIAN_POINT('',(0.00624142445097124,0.0103177744324881,0.00510861022929074));
#1062=CARTESIAN_POINT('',(0.00608460955711038,0.0102796578541748,0.00527063837468897));
#1063=CARTESIAN_POINT('',(0.00586932324587492,0.0102272103498452,0.00540742486576677));
#1064=CARTESIAN_POINT('',(0.00569181148838342,0.0101835699392523,0.00545788871678299));
#1065=CARTESIAN_POINT('',(0.00557789336471176,0.0101564721093671,0.00546731404891581));
#1066=CARTESIAN_POINT('',(0.00647860079260665,0.0103557467446513,0.00442152052393016));
#1067=CARTESIAN_POINT('',(0.00647860079207307,0.0103557467468428,0.0044215205588451));
#1068=CARTESIAN_POINT('',(0.00643730088121544,0.0105253713713554,0.00442835567322354));
#1069=CARTESIAN_POINT('',(0.00622604209944906,0.0106295185827205,0.0044342741547587));
#1070=CARTESIAN_POINT('',(0.00606616527803005,0.0105590708799375,0.00443307507020729));
#1071=CARTESIAN_POINT('',(0.00606616527755127,0.0105590708807926,0.00443307504489547));
#1072=CARTESIAN_POINT('',(0.00550706611816658,0.0103491769165164,0.00519623424594132));
#1073=CARTESIAN_POINT('',(0.00567522368726431,0.0103907093077953,0.00518102319389622));
#1074=CARTESIAN_POINT('',(0.00597703785327672,0.0104917862220199,0.00498230715383301));
#1075=CARTESIAN_POINT('',(0.00606759068480894,0.0105520558086359,0.00461452770456833));
#1076=CARTESIAN_POINT('',(0.00606616527783126,0.0105590708809159,0.00443307504489903));
#1077=CARTESIAN_POINT('',(0.00550706611816404,0.0103491769165158,0.00519623424594155));
#1078=CARTESIAN_POINT('',(0.00501314486075594,0.0102271857921572,0.00524091294814806));
#1079=CARTESIAN_POINT('',(0.00397042226779238,0.0100766059500917,0.00529367807411381));
#1080=CARTESIAN_POINT('',(0.00238537478390652,0.00994805030670642,0.00533908152239074));
#1081=CARTESIAN_POINT('',(0.000266896563062502,0.00987409554500549,0.00536479265327429));
#1082=CARTESIAN_POINT('',(-0.00185804845305032,0.00990674772912603,0.00535362188183519));
#1083=CARTESIAN_POINT('',(-0.00397007618591938,0.0100758566092647,0.00529397344257196));
#1084=CARTESIAN_POINT('',(-0.00501314486075594,0.0102271857921572,0.00524091294814806));
#1085=CARTESIAN_POINT('',(-0.00550706611816404,0.0103491769165158,0.00519623424594154));
#1086=CARTESIAN_POINT('',(0.00551329128540415,0.0103478023044043,0.00526480268354995));
#1087=CARTESIAN_POINT('',(0.00501741152552593,0.0102247998370053,0.00530920352316355));
#1088=CARTESIAN_POINT('',(0.00397329059389129,0.0100740366999687,0.00536192373687586));
#1089=CARTESIAN_POINT('',(0.00238682153303704,0.00994516966963277,0.00540724227649814));
#1090=CARTESIAN_POINT('',(0.000267025270914128,0.00987121828042991,0.00543295624410881));
#1091=CARTESIAN_POINT('',(-0.0018590442181009,0.00990378789727612,0.00542176113900557));
#1092=CARTESIAN_POINT('',(-0.00397293393712795,0.0100732716962887,0.00536221458728881));
#1093=CARTESIAN_POINT('',(-0.00501741152552593,0.0102247998370053,0.00530920352316355));
#1094=CARTESIAN_POINT('',(-0.00551329128540415,0.0103478023044043,0.00526480268354995));
#1095=CARTESIAN_POINT('',(0.0055343447704021,0.0103034648278681,0.00538259623514183));
#1096=CARTESIAN_POINT('',(0.00503142059086448,0.0101784260125911,0.00542652162084137));
#1097=CARTESIAN_POINT('',(0.00398281011080609,0.0100273037667403,0.0054791582901766));
#1098=CARTESIAN_POINT('',(0.0023915121673683,0.00989781229313227,0.00552433141221378));
#1099=CARTESIAN_POINT('',(0.000267416419519689,0.00982386967189036,0.0055500471574198));
#1100=CARTESIAN_POINT('',(-0.00186220825892821,0.0098562724378372,0.00553881360487023));
#1101=CARTESIAN_POINT('',(-0.00398239788586849,0.0100265076408062,0.00547944206329479));
#1102=CARTESIAN_POINT('',(-0.00503142059086448,0.0101784260125911,0.00542652162084137));
#1103=CARTESIAN_POINT('',(-0.0055343447704021,0.0103034648278681,0.00538259623514183));
#1104=CARTESIAN_POINT('',(0.00556483643402836,0.0102036690317155,0.00545089772809898));
#1105=CARTESIAN_POINT('',(0.00505159345909087,0.0100766891653804,0.00549506250848995));
#1106=CARTESIAN_POINT('',(0.00399652832931072,0.00992524098354765,0.00554774130869666));
#1107=CARTESIAN_POINT('',(0.00239826440849397,0.00979515629638494,0.00559298754779193));
#1108=CARTESIAN_POINT('',(0.000267990671101809,0.00972122771165949,0.00561870254207494));
#1109=CARTESIAN_POINT('',(-0.00186676623400359,0.00975346658503067,0.00560748813494734));
#1110=CARTESIAN_POINT('',(-0.00399603746731076,0.00992441458134672,0.00554802857799334));
#1111=CARTESIAN_POINT('',(-0.00505159345909087,0.0100766891653804,0.00549506250848994));
#1112=CARTESIAN_POINT('',(-0.00556483643402836,0.0102036690317155,0.00545089772809898));
#1113=CARTESIAN_POINT('',(0.00557789336471179,0.0101564721093671,0.00546731404891582));
#1114=CARTESIAN_POINT('',(0.00506023396716979,0.0100287186997091,0.0055117500174925));
#1115=CARTESIAN_POINT('',(0.00400240331130081,0.00987713993958444,0.0055644730644924));
#1116=CARTESIAN_POINT('',(0.00240115710440092,0.00974681883711101,0.00560980214361359));
#1117=CARTESIAN_POINT('',(0.000268237118292714,0.00967289552680359,0.00563551459937269));
#1118=CARTESIAN_POINT('',(-0.00186871959064691,0.00970506941962201,0.00562432368013149));
#1119=CARTESIAN_POINT('',(-0.00400187899481724,0.00987630154089239,0.00556476468142876));
#1120=CARTESIAN_POINT('',(-0.00506023396716979,0.0100287186997091,0.0055117500174925));
#1121=CARTESIAN_POINT('',(-0.00557789336471179,0.0101564721093671,0.00546731404891582));
#1122=CARTESIAN_POINT('',(-0.00550706611816404,0.0103491769165158,0.00519623424594154));
#1123=CARTESIAN_POINT('',(-0.00551796016083423,0.0103467713453207,0.00531622901175626));
#1124=CARTESIAN_POINT('',(-0.00554742719311712,0.0102665982615133,0.00542900930034319));
#1125=CARTESIAN_POINT('',(-0.00557789336471179,0.0101564721093671,0.00546731404891582));
#1126=CARTESIAN_POINT('',(-0.00557789336471176,0.0101564721093671,0.00546731404891579));
#1127=CARTESIAN_POINT('',(-0.00550706611816054,0.010349176916515,0.00519623424594071));
#1128=CARTESIAN_POINT('',(-0.00557789336471179,0.0101564721093671,0.00546731404891582));
#1129=CARTESIAN_POINT('',(-0.00506023396716979,0.0100287186997091,0.0055117500174925));
#1130=CARTESIAN_POINT('',(-0.00400187899481724,0.00987630154089239,0.00556476468142876));
#1131=CARTESIAN_POINT('',(-0.00186871959064691,0.00970506941962201,0.00562432368013149));
#1132=CARTESIAN_POINT('',(0.000268237118292714,0.00967289552680359,0.00563551459937269));
#1133=CARTESIAN_POINT('',(0.00240115710440092,0.00974681883711101,0.00560980214361359));
#1134=CARTESIAN_POINT('',(0.00400240331130081,0.00987713993958444,0.0055644730644924));
#1135=CARTESIAN_POINT('',(0.00506023396716979,0.0100287186997091,0.0055117500174925));
#1136=CARTESIAN_POINT('',(0.00557789336471179,0.0101564721093671,0.00546731404891582));
#1137=CARTESIAN_POINT('',(-0.00550706611816403,0.0103491769165158,0.00519623424594155));
#1138=CARTESIAN_POINT('',(-0.0052066091492133,0.0102749685626256,0.00522341272275396));
#1139=CARTESIAN_POINT('',(-0.00445279168425063,0.0101379831587601,0.00527063639144673));
#1140=CARTESIAN_POINT('',(-0.00300717997608785,0.0099903785362624,0.00532106696077939));
#1141=CARTESIAN_POINT('',(-0.00171457480300247,0.00992262636284933,0.00534638009105961));
#1142=CARTESIAN_POINT('',(-0.000708231921778045,0.00989804638781894,0.00535646355440856));
#1143=CARTESIAN_POINT('',(0.00023131554002988,0.00989066199919235,0.00535963081911278));
#1144=CARTESIAN_POINT('',(0.00146586448331187,0.00990948874390114,0.00535067980455012));
#1145=CARTESIAN_POINT('',(0.00302762160784164,0.00999182924374241,0.00532012175788582));
#1146=CARTESIAN_POINT('',(0.00446342075874715,0.0101396972914957,0.00526993304898709));
#1147=CARTESIAN_POINT('',(0.00520968328659102,0.0102757278283374,0.00522313464509202));
#1148=CARTESIAN_POINT('',(0.00550706611816404,0.0103491769165158,0.00519623424594155));
#1149=CARTESIAN_POINT('',(-0.00550706611816657,0.0103491769165164,0.00519623424594132));
#1150=CARTESIAN_POINT('',(-0.00565194854007747,0.0103849606963875,0.00518312859704348));
#1151=CARTESIAN_POINT('',(-0.00596058983714079,0.0104836071406696,0.00500804619887377));
#1152=CARTESIAN_POINT('',(-0.00606780780959154,0.0105509872394008,0.00464216743827578));
#1153=CARTESIAN_POINT('',(-0.00606616527783122,0.0105590708809159,0.00443307504489904));
#1154=CARTESIAN_POINT('',(-0.0055125131395011,0.0103479741309187,0.00525623162884871));
#1155=CARTESIAN_POINT('',(-0.0056719210801113,0.010387468405646,0.00524232653889128));
#1156=CARTESIAN_POINT('',(-0.00601314207083659,0.0104973413416018,0.00505847022812719));
#1157=CARTESIAN_POINT('',(-0.00614342902174564,0.0105831913255713,0.0046659229829213));
#1158=CARTESIAN_POINT('',(-0.00614610368906329,0.0105942947326729,0.00443367458437198));
#1159=CARTESIAN_POINT('',(-0.00553223154749319,0.0103092282598094,0.00537454798891233));
#1160=CARTESIAN_POINT('',(-0.00572163062915723,0.0103557654345118,0.00535902307105969));
#1161=CARTESIAN_POINT('',(-0.00613235200049553,0.0104809637349488,0.0051571208972936));
#1162=CARTESIAN_POINT('',(-0.00632298353238278,0.010582698965882,0.00471006876707067));
#1163=CARTESIAN_POINT('',(-0.00633781339028849,0.0105898799433224,0.00443173102560238));
#1164=CARTESIAN_POINT('',(-0.00556266027891461,0.0102115351854403,0.00544816167462946));
#1165=CARTESIAN_POINT('',(-0.00577347386881635,0.010262187953467,0.0054309726931509));
#1166=CARTESIAN_POINT('',(-0.00623613309107421,0.0103846900594641,0.0052053807525821));
#1167=CARTESIAN_POINT('',(-0.00644604163289944,0.0104516132506197,0.00471752863912865));
#1168=CARTESIAN_POINT('',(-0.00645795083808573,0.0104405590577612,0.00442493808061957));
#1169=CARTESIAN_POINT('',(-0.00557789336471176,0.0101564721093671,0.00546731404891579));
#1170=CARTESIAN_POINT('',(-0.00579526087985435,0.0102081775602475,0.00544932954426394));
#1171=CARTESIAN_POINT('',(-0.0062744454778719,0.0103266125707793,0.00521028736996691));
#1172=CARTESIAN_POINT('',(-0.0064741924690418,0.0103738523583876,0.00470998174637229));
#1173=CARTESIAN_POINT('',(-0.00647860079260665,0.0103557467446513,0.00442152052393015));
#1174=CARTESIAN_POINT('',(-0.00606616527809324,0.0105590708796264,0.00443307507825407));
#1175=CARTESIAN_POINT('',(-0.00622604209918,0.010629518582177,0.00443427416458778));
#1176=CARTESIAN_POINT('',(-0.00643730088046846,0.0105253713715097,0.00442835568464262));
#1177=CARTESIAN_POINT('',(-0.00647860079190342,0.0103557467475396,0.00442152056994633));
#1178=CARTESIAN_POINT('',(-0.00606616527755127,0.0105590708807926,0.00443307504489547));
#1179=CARTESIAN_POINT('',(-0.00647860079260665,0.0103557467446513,0.00442152052393015));
#1180=CARTESIAN_POINT('',(-0.00557789336471177,0.0101564721093671,0.0054673140489158));
#1181=CARTESIAN_POINT('',(-0.00569067921471904,0.0101833006040653,0.00545798239858714));
#1182=CARTESIAN_POINT('',(-0.00591936127782823,0.0102398806603896,0.00540376253132214));
#1183=CARTESIAN_POINT('',(-0.00620691031586125,0.0103094366360671,0.00515819534625157));
#1184=CARTESIAN_POINT('',(-0.00631725518289832,0.0103361640397453,0.00499830300834705));
#1185=CARTESIAN_POINT('',(-0.00642076591987023,0.0103588214404019,0.00479574605486711));
#1186=CARTESIAN_POINT('',(-0.00647644839280011,0.0103627222442133,0.00454488492464753));
#1187=CARTESIAN_POINT('',(-0.00647809488073702,0.0103578245968691,0.00445462516205603));
#1188=CARTESIAN_POINT('',(-0.00647860079260663,0.0103557467446513,0.00442152052393016));
#1189=CARTESIAN_POINT('',(-0.0060661652778312,0.010559070880916,0.00443307504489904));
#1190=CARTESIAN_POINT('',(-0.00606758933695231,0.0105520624420478,0.00461435612398292));
#1191=CARTESIAN_POINT('',(-0.00597813619715227,0.0104920075890278,0.00498253291634997));
#1192=CARTESIAN_POINT('',(-0.00567239317315367,0.0103900102133675,0.0051812792340952));
#1193=CARTESIAN_POINT('',(-0.00550706611816655,0.0103491769165165,0.00519623424594133));
#1194=CARTESIAN_POINT('',(-0.00606616527783294,0.0105590708809074,0.00443307504511908));
#1195=CARTESIAN_POINT('',(-0.00603363987025932,0.0107191431064212,0.000292628576911772));
#1196=CARTESIAN_POINT('',(-0.00599990888190477,0.0108799136341802,-0.00384779079996577));
#1197=CARTESIAN_POINT('',(-0.00596537299265507,0.0110412935356207,-0.00798818562519449));
#1198=CARTESIAN_POINT('',(-0.00614610368907698,0.0105942947326724,0.00443367458452862));
#1199=CARTESIAN_POINT('',(-0.00611337991187619,0.0107521975464434,0.000293150989183519));
#1200=CARTESIAN_POINT('',(-0.00607934636325727,0.0109113130201576,-0.00384732735320739));
#1201=CARTESIAN_POINT('',(-0.00604456268826381,0.0110711590631783,-0.00798777727403584));
#1202=CARTESIAN_POINT('',(-0.00633780176048487,0.0105898563973673,0.00443173023765004));
#1203=CARTESIAN_POINT('',(-0.00630224052051581,0.0107448728852833,0.000291111952014269));
#1204=CARTESIAN_POINT('',(-0.00626583919410301,0.0109015059762996,-0.00384944864668452));
#1205=CARTESIAN_POINT('',(-0.00622893079320636,0.0110593987332777,-0.00798996282344919));
#1206=CARTESIAN_POINT('',(-0.00645795083812506,0.0104405590577006,0.00442493808061111));
#1207=CARTESIAN_POINT('',(-0.00641980931761643,0.0105970094342985,0.000284360543998926));
#1208=CARTESIAN_POINT('',(-0.00638142356312735,0.0107550018980787,-0.00385616016429372));
#1209=CARTESIAN_POINT('',(-0.00634268584901945,0.0109139688343844,-0.0079966420367676));
#1210=CARTESIAN_POINT('',(-0.00647860079262611,0.0103557467445714,0.0044215205239323));
#1211=CARTESIAN_POINT('',(-0.00644025090850212,0.0105132551972234,0.000280966057967083));
#1212=CARTESIAN_POINT('',(-0.00640158489713569,0.0106720620296213,-0.00385953603867843));
#1213=CARTESIAN_POINT('',(-0.00636269200338885,0.0108318007003673,-0.00799999999999869));
#1214=CARTESIAN_POINT('',(-0.00636269200338885,0.0108318007003673,-0.00799999999999869));
#1215=CARTESIAN_POINT('',(-0.00640158489713569,0.0106720620296213,-0.00385953603867843));
#1216=CARTESIAN_POINT('',(-0.00644025090850212,0.0105132551972234,0.000280966057967083));
#1217=CARTESIAN_POINT('',(-0.00647860079262611,0.0103557467445714,0.0044215205239323));
#1218=CARTESIAN_POINT('',(-0.00606616527783122,0.010559070880916,0.00443307504489804));
#1219=CARTESIAN_POINT('',(-0.00603363987025754,0.0107191431064297,0.00029262857669074));
#1220=CARTESIAN_POINT('',(-0.00599990888190477,0.0108799136341802,-0.00384779079996577));
#1221=CARTESIAN_POINT('',(-0.00596537299265507,0.0110412935356207,-0.00798818562519449));
#1222=CARTESIAN_POINT('',(-0.0062,0.0115,0.005));
#1223=CARTESIAN_POINT('',(-0.00595865579359828,0.0124912351334357,0.00367874195310885));
#1224=CARTESIAN_POINT('',(-0.00498704065535061,0.0122546679693406,0.00367874195310885));
#1225=CARTESIAN_POINT('',(-0.00498704065535061,0.0125831885942819,0.00462323874981502));
#1226=CARTESIAN_POINT('',(0.0062,0.0115,0.005));
#1227=CARTESIAN_POINT('',(0.00479617641036373,0.0133670953147637,0.00435057554269092));
#1228=CARTESIAN_POINT('',(0.00479617641036373,0.0130385746898224,0.00340607874598475));
#1229=CARTESIAN_POINT('',(0.0057677915486114,0.0132751418539175,0.00340607874598475));
#1230=CARTESIAN_POINT('',(0.00596537299265507,0.0110412935356207,-0.00798818562519449));
#1231=CARTESIAN_POINT('',(0.00599990888190477,0.0108799136341802,-0.00384779079996577));
#1232=CARTESIAN_POINT('',(0.00603363987025932,0.0107191431064212,0.000292628576911786));
#1233=CARTESIAN_POINT('',(0.00606616527783296,0.0105590708809074,0.00443307504511908));
#1234=CARTESIAN_POINT('',(0.00604456268826381,0.0110711590631783,-0.00798777727403582));
#1235=CARTESIAN_POINT('',(0.00607934636325727,0.0109113130201575,-0.00384732735320739));
#1236=CARTESIAN_POINT('',(0.00611337991187622,0.0107521975464434,0.000293150989183519));
#1237=CARTESIAN_POINT('',(0.00614610368907698,0.0105942947326724,0.00443367458452862));
#1238=CARTESIAN_POINT('',(0.00622893079320636,0.0110593987332777,-0.00798996282344919));
#1239=CARTESIAN_POINT('',(0.00626583919410301,0.0109015059762996,-0.00384944864668452));
#1240=CARTESIAN_POINT('',(0.00630224052051581,0.0107448728852833,0.000291111952014283));
#1241=CARTESIAN_POINT('',(0.00633780176048487,0.0105898563973673,0.00443173023765004));
#1242=CARTESIAN_POINT('',(0.00634268584901945,0.0109139688343844,-0.0079966420367676));
#1243=CARTESIAN_POINT('',(0.00638142356312735,0.0107550018980787,-0.00385616016429372));
#1244=CARTESIAN_POINT('',(0.00641980931761643,0.0105970094342985,0.000284360543998926));
#1245=CARTESIAN_POINT('',(0.00645795083812506,0.0104405590577006,0.00442493808061111));
#1246=CARTESIAN_POINT('',(0.00636269200338885,0.0108318007003673,-0.00799999999999869));
#1247=CARTESIAN_POINT('',(0.00640158489713569,0.0106720620296213,-0.00385953603867843));
#1248=CARTESIAN_POINT('',(0.00644025090850212,0.0105132551972234,0.000280966057967083));
#1249=CARTESIAN_POINT('',(0.00647860079262611,0.0103557467445714,0.0044215205239323));
#1250=CARTESIAN_POINT('',(0.00596537299265507,0.0110412935356207,-0.00798818562519449));
#1251=CARTESIAN_POINT('',(0.00599990888190477,0.0108799136341802,-0.00384779079996577));
#1252=CARTESIAN_POINT('',(0.00603363987025754,0.0107191431064297,0.00029262857669074));
#1253=CARTESIAN_POINT('',(0.00606616527783122,0.0105590708809159,0.00443307504489804));
#1254=CARTESIAN_POINT('',(0.00647860079262611,0.0103557467445714,0.0044215205239323));
#1255=CARTESIAN_POINT('',(0.00644025090850212,0.0105132551972234,0.000280966057967083));
#1256=CARTESIAN_POINT('',(0.00640158489713569,0.0106720620296213,-0.00385953603867843));
#1257=CARTESIAN_POINT('',(0.00636269200338885,0.0108318007003673,-0.00799999999999869));
#1258=CARTESIAN_POINT('',(0.0062,0.0115,-0.009));
#1259=CARTESIAN_POINT('',(-0.00609354742987776,0.0105279889249458,0.00546436982651875));
#1260=CARTESIAN_POINT('',(-0.00609354742987788,0.0110899829101445,-0.00787687869167758));
#1261=CARTESIAN_POINT('',(-0.00590922442952508,0.0104430558872763,0.00546079206119567));
#1262=CARTESIAN_POINT('',(-0.0059092244295252,0.0110050498724751,-0.00788045645700065));
#1263=CARTESIAN_POINT('',(-0.00533962032412448,0.0102714687921717,0.00545356403337991));
#1264=CARTESIAN_POINT('',(-0.0053396203241246,0.0108334627773704,-0.00788768448481641));
#1265=CARTESIAN_POINT('',(-0.0038687411831135,0.0100546074610188,0.00544442884910058));
#1266=CARTESIAN_POINT('',(-0.00386874118311361,0.0106166014462176,-0.00789681966909575));
#1267=CARTESIAN_POINT('',(-0.00195675050208774,0.00991822756471661,0.00543868390841385));
#1268=CARTESIAN_POINT('',(-0.00195675050208785,0.0104802215499153,-0.00790256460978247));
#1269=CARTESIAN_POINT('',(2.32558637293987E-8,0.00987742747112855,0.00543696522315281));
#1270=CARTESIAN_POINT('',(2.3255863614081E-8,0.0104394214563273,-0.00790428329504351));
#1271=CARTESIAN_POINT('',(0.00195666248014743,0.00991822549412713,0.00543868382119122));
#1272=CARTESIAN_POINT('',(0.00195666248014732,0.0104802194793258,-0.0079025646970051));
#1273=CARTESIAN_POINT('',(0.00386866324120164,0.0100545983445456,0.00544442846507332));
#1274=CARTESIAN_POINT('',(0.00386866324120153,0.0106165923297443,-0.007896820053123));
#1275=CARTESIAN_POINT('',(0.00533957817718305,0.0102714610580861,0.00545356370758509));
#1276=CARTESIAN_POINT('',(0.00533957817718293,0.0108334550432848,-0.00788768481061123));
#1277=CARTESIAN_POINT('',(0.00590922720110419,0.0104430499465011,0.00546079181094323));
#1278=CARTESIAN_POINT('',(0.00590922720110408,0.0110050439316998,-0.00788045670725309));
#1279=CARTESIAN_POINT('',(0.00609354846792276,0.0105279899450802,0.00546436986949143));
#1280=CARTESIAN_POINT('',(0.00609354846792264,0.0110899839302789,-0.00787687864870489));
#1281=MECHANICAL_DESIGN_GEOMETRIC_PRESENTATION_REPRESENTATION('',(#630),
#1282);
#1282=(
GEOMETRIC_REPRESENTATION_CONTEXT(3)
GLOBAL_UNCERTAINTY_ASSIGNED_CONTEXT((#1283))
GLOBAL_UNIT_ASSIGNED_CONTEXT((#1286,#1285,#1284))
REPRESENTATION_CONTEXT('Cherry MX Keycap','TOP_LEVEL_ASSEMBLY_PART')
);
#1283=UNCERTAINTY_MEASURE_WITH_UNIT(LENGTH_MEASURE(2.E-5),#1286,
'DISTANCE_ACCURACY_VALUE','Maximum Tolerance applied to model');
#1284=(
NAMED_UNIT(*)
SI_UNIT($,.STERADIAN.)
SOLID_ANGLE_UNIT()
);
#1285=(
NAMED_UNIT(*)
PLANE_ANGLE_UNIT()
SI_UNIT($,.RADIAN.)
);
#1286=(
LENGTH_UNIT()
NAMED_UNIT(*)
SI_UNIT($,.METRE.)
);
#1287=PRODUCT_DEFINITION_SHAPE('','',#1288);
#1288=PRODUCT_DEFINITION('','',#1290,#1289);
#1289=PRODUCT_DEFINITION_CONTEXT('',#1296,'design');
#1290=PRODUCT_DEFINITION_FORMATION_WITH_SPECIFIED_SOURCE('','',#1292,
 .NOT_KNOWN.);
#1291=PRODUCT_RELATED_PRODUCT_CATEGORY('','',(#1292));
#1292=PRODUCT('Cherry MX Keycap','Cherry MX Keycap','Cherry MX Keycap',
(#1294));
#1293=PRODUCT_CATEGORY('','');
#1294=PRODUCT_CONTEXT('',#1296,'mechanical');
#1295=APPLICATION_PROTOCOL_DEFINITION('international standard',
'ap242_managed_model_based_3d_engineering',2020,#1296);
#1296=APPLICATION_CONTEXT('managed model based 3d engineering');
ENDSEC;
END-ISO-10303-21;
