ISO-10303-21;
HEADER;
/* Generated by software containing ST-Developer
 * from STEP Tools, Inc. (www.steptools.com) 
 */
/* OPTION: using custom renumber hook */

FILE_DESCRIPTION(
/* description */ ('STEP AP242 Edition 2',
'CAx-IF Rec.Pracs.---Representation and Presentation of Product Manufa
cturing Information (PMI)---4.0---2014-10-13',
'CAx-IF Rec.Pracs.---3D Tessellated Geometry---0.4---2014-09-14','2;1',
'CAx-IF Rec.Pracs.---User Defined Attributes---1.5---2016-08-15'),
/* implementation_level */ '2;1');

FILE_NAME(
/* name */ 'Rubber Foot',
/* time_stamp */ '2026-06-05T22:14:47Z',
/* author */ (''),
/* organization */ (''),
/* preprocessor_version */ 'ST-DEVELOPER v20',
/* originating_system */ 'ONSHAPE BY PTC INC, 1.216',
/* authorisation */ '  ');

FILE_SCHEMA (('AP242_MANAGED_MODEL_BASED_3D_ENGINEERING_MIM_LF { 1 0 10303 442 3 1 4 }'));
ENDSEC;

DATA;
#10=SHAPE_REPRESENTATION_RELATIONSHIP('','',#58,#11);
#11=ADVANCED_BREP_SHAPE_REPRESENTATION('',(#56),#167);
#12=B_SPLINE_SURFACE_WITH_KNOTS('',2,3,((#112,#113,#114,#115,#116,#117,
#118,#119,#120,#121,#122,#123,#124,#125,#126,#127,#128,#129),(#130,#131,
#132,#133,#134,#135,#136,#137,#138,#139,#140,#141,#142,#143,#144,#145,#146,
#147),(#148,#149,#150,#151,#152,#153,#154,#155,#156,#157,#158,#159,#160,
#161,#162,#163,#164,#165)),.UNSPECIFIED.,.F.,.T.,.F.,(3,3),(4,2,2,2,2,2,
2,2,4),(0.,1.),(0.,0.785398163397448,1.5707963267949,2.35619449019234,3.1415926535898,
3.92699081698724,4.71238898038469,5.49778714378214,6.28318530717959),
 .UNSPECIFIED.);
#13=PLANE('',#62);
#14=PLANE('',#63);
#15=CIRCLE('',#61,0.0025);
#16=ORIENTED_EDGE('',*,*,#22,.T.);
#17=ORIENTED_EDGE('',*,*,#23,.T.);
#18=ORIENTED_EDGE('',*,*,#24,.T.);
#19=ORIENTED_EDGE('',*,*,#23,.F.);
#20=ORIENTED_EDGE('',*,*,#22,.F.);
#21=ORIENTED_EDGE('',*,*,#24,.F.);
#22=EDGE_CURVE('',#25,#25,#28,.T.);
#23=EDGE_CURVE('',#26,#26,#15,.T.);
#24=EDGE_CURVE('',#27,#27,#29,.T.);
#25=VERTEX_POINT('',#87);
#26=VERTEX_POINT('',#89);
#27=VERTEX_POINT('',#110);
#28=B_SPLINE_CURVE_WITH_KNOTS('',3,(#76,#77,#78,#79,#80,#81,#82,#83,#84,
#85,#86),.UNSPECIFIED.,.T.,.F.,(1,1,1,1,1,1,1,1,1,1,1,1,1,1,1),(-0.375,
-0.25,-0.125,0.,0.125,0.25,0.375,0.5,0.625,0.75,0.875,1.,1.125,1.25,1.375),
 .UNSPECIFIED.);
#29=B_SPLINE_CURVE_WITH_KNOTS('',3,(#91,#92,#93,#94,#95,#96,#97,#98,#99,
#100,#101,#102,#103,#104,#105,#106,#107,#108,#109),.UNSPECIFIED.,.T.,.F.,
(1,1,1,1,1,1,1,1,1,1,1,1,1,1,1,1,1,1,1,1,1,1,1),(-0.190789473684211,-0.128289473684211,
-0.0657894736842105,0.,0.059375,0.12171875,0.1842109375,0.246710546875,
0.30921052734375,0.371710526367187,0.434210526318359,0.496710526315918,
0.559210526315796,0.62171052631579,0.684210526315789,0.746710526315789,
0.809210526315789,0.871710526315789,0.934210526315789,1.,1.059375,1.12171875,
1.1842109375),.UNSPECIFIED.);
#30=EDGE_LOOP('',(#16));
#31=EDGE_LOOP('',(#17));
#32=EDGE_LOOP('',(#18));
#33=EDGE_LOOP('',(#19));
#34=EDGE_LOOP('',(#20));
#35=EDGE_LOOP('',(#21));
#36=FACE_BOUND('',#30,.T.);
#37=FACE_BOUND('',#31,.T.);
#38=FACE_BOUND('',#32,.T.);
#39=FACE_BOUND('',#33,.T.);
#40=FACE_BOUND('',#34,.T.);
#41=FACE_BOUND('',#35,.T.);
#42=CYLINDRICAL_SURFACE('',#60,0.0025);
#43=ADVANCED_FACE('',(#36,#37),#42,.T.);
#44=ADVANCED_FACE('',(#38),#13,.T.);
#45=ADVANCED_FACE('',(#39),#14,.F.);
#46=ADVANCED_FACE('',(#40,#41),#12,.T.);
#47=CLOSED_SHELL('',(#43,#44,#45,#46));
#48=STYLED_ITEM('',(#49),#56);
#49=PRESENTATION_STYLE_ASSIGNMENT((#50));
#50=SURFACE_STYLE_USAGE(.BOTH.,#51);
#51=SURFACE_SIDE_STYLE('',(#52));
#52=SURFACE_STYLE_FILL_AREA(#53);
#53=FILL_AREA_STYLE('',(#54));
#54=FILL_AREA_STYLE_COLOUR('',#55);
#55=DRAUGHTING_PRE_DEFINED_COLOUR('black');
#56=MANIFOLD_SOLID_BREP('Rubber Foot',#47);
#57=SHAPE_DEFINITION_REPRESENTATION(#172,#58);
#58=SHAPE_REPRESENTATION('Rubber Foot',(#59),#167);
#59=AXIS2_PLACEMENT_3D('',#74,#64,#65);
#60=AXIS2_PLACEMENT_3D('',#75,#66,#67);
#61=AXIS2_PLACEMENT_3D('',#88,#68,#69);
#62=AXIS2_PLACEMENT_3D('',#90,#70,#71);
#63=AXIS2_PLACEMENT_3D('',#111,#72,#73);
#64=DIRECTION('',(0.,0.,1.));
#65=DIRECTION('',(1.,0.,0.));
#66=DIRECTION('',(0.,0.,-1.));
#67=DIRECTION('',(-1.,0.,0.));
#68=DIRECTION('',(0.,0.,1.));
#69=DIRECTION('',(1.,0.,0.));
#70=DIRECTION('',(0.,0.,1.));
#71=DIRECTION('',(1.,0.,0.));
#72=DIRECTION('',(0.,0.,1.));
#73=DIRECTION('',(1.,0.,0.));
#74=CARTESIAN_POINT('',(0.,0.,0.));
#75=CARTESIAN_POINT('',(0.,1.53080849893419E-19,0.005));
#76=CARTESIAN_POINT('',(0.00195902906222806,0.00195902906222806,0.004));
#77=CARTESIAN_POINT('',(0.00277048546888597,-7.2099444470286E-18,0.004));
#78=CARTESIAN_POINT('',(0.00195902906222806,-0.00195902906222806,0.004));
#79=CARTESIAN_POINT('',(-5.0821976835258E-18,-0.00277048546888597,0.004));
#80=CARTESIAN_POINT('',(-0.00195902906222806,-0.00195902906222806,0.004));
#81=CARTESIAN_POINT('',(-0.00277048546888597,1.91980017495187E-18,0.004));
#82=CARTESIAN_POINT('',(-0.00195902906222806,0.00195902906222806,0.004));
#83=CARTESIAN_POINT('',(1.68051336735253E-18,0.00277048546888597,0.004));
#84=CARTESIAN_POINT('',(0.00195902906222806,0.00195902906222806,0.004));
#85=CARTESIAN_POINT('',(0.00277048546888597,-7.2099444470286E-18,0.004));
#86=CARTESIAN_POINT('',(0.00195902906222806,-0.00195902906222806,0.004));
#87=CARTESIAN_POINT('',(0.0025,4.59242549680257E-19,0.004));
#88=CARTESIAN_POINT('',(0.,1.53080849893419E-19,0.));
#89=CARTESIAN_POINT('',(0.0025,1.53080849893419E-19,0.));
#90=CARTESIAN_POINT('',(0.,0.,0.005));
#91=CARTESIAN_POINT('',(0.00141231579957246,-0.000609862690771685,0.005));
#92=CARTESIAN_POINT('',(0.00154034525802115,-1.94724588340667E-5,0.005));
#93=CARTESIAN_POINT('',(0.00142577260085724,0.000566590432432833,0.005));
#94=CARTESIAN_POINT('',(0.00111057278911381,0.00106719575809415,0.005));
#95=CARTESIAN_POINT('',(0.000618451391299613,0.00140629077057769,0.005));
#96=CARTESIAN_POINT('',(3.1187138142768E-5,0.00153999524949774,0.005));
#97=CARTESIAN_POINT('',(-0.000557055134493306,0.00143172732270138,0.005));
#98=CARTESIAN_POINT('',(-0.00106688973200243,0.00111099381574921,0.005));
#99=CARTESIAN_POINT('',(-0.00140628098677646,0.000618486979735151,0.005));
#100=CARTESIAN_POINT('',(-0.00153999638241014,3.11862277436727E-5,0.005));
#101=CARTESIAN_POINT('',(-0.00143172709214598,-0.000557054471565816,0.005));
#102=CARTESIAN_POINT('',(-0.00111099399113918,-0.00106688987090481,0.005));
#103=CARTESIAN_POINT('',(-0.00061848655668554,-0.00140628102675458,0.005));
#104=CARTESIAN_POINT('',(-3.11877480672563E-5,-0.00153999608144516,0.005));
#105=CARTESIAN_POINT('',(0.000557060129606894,-0.00143172825599353,0.005));
#106=CARTESIAN_POINT('',(0.00106686875905422,-0.00111098963671644,0.005));
#107=CARTESIAN_POINT('',(0.00141231579957246,-0.000609862690771685,0.005));
#108=CARTESIAN_POINT('',(0.00154034525802115,-1.94724588340667E-5,0.005));
#109=CARTESIAN_POINT('',(0.00142577260085724,0.000566590432432833,0.005));
#110=CARTESIAN_POINT('',(0.0015,1.53080849893419E-19,0.005));
#111=CARTESIAN_POINT('',(0.,0.,0.));
#112=CARTESIAN_POINT('',(0.0015,1.53080849893419E-19,0.005));
#113=CARTESIAN_POINT('',(0.0015,0.000392699052609955,0.005));
#114=CARTESIAN_POINT('',(0.0013383403348458,0.000782980008713843,0.005));
#115=CARTESIAN_POINT('',(0.000782980008713843,0.0013383403348458,0.005));
#116=CARTESIAN_POINT('',(0.000392699052609904,0.0015,0.005));
#117=CARTESIAN_POINT('',(-0.000392699052609904,0.0015,0.005));
#118=CARTESIAN_POINT('',(-0.000782980008713797,0.0013383403348458,0.005));
#119=CARTESIAN_POINT('',(-0.00133834033484585,0.000782980008713838,0.005));
#120=CARTESIAN_POINT('',(-0.0015,0.000392699052609904,0.005));
#121=CARTESIAN_POINT('',(-0.0015,-0.000392699052609904,0.005));
#122=CARTESIAN_POINT('',(-0.0013383403348458,-0.000782980008713797,0.005));
#123=CARTESIAN_POINT('',(-0.000782980008713838,-0.00133834033484585,0.005));
#124=CARTESIAN_POINT('',(-0.000392699052609902,-0.0015,0.005));
#125=CARTESIAN_POINT('',(0.000392699052609906,-0.0015,0.005));
#126=CARTESIAN_POINT('',(0.000782980008713836,-0.00133834033484585,0.005));
#127=CARTESIAN_POINT('',(0.0013383403348458,-0.000782980008713799,0.005));
#128=CARTESIAN_POINT('',(0.0015,-0.000392699052609954,0.005));
#129=CARTESIAN_POINT('',(0.0015,1.53080849893419E-19,0.005));
#130=CARTESIAN_POINT('',(0.0025,1.53080849893419E-19,0.005));
#131=CARTESIAN_POINT('',(0.0025,0.000654498421016591,0.005));
#132=CARTESIAN_POINT('',(0.00223056722474299,0.00130496668118971,0.005));
#133=CARTESIAN_POINT('',(0.00130496668118975,0.00223056722474303,0.005));
#134=CARTESIAN_POINT('',(0.000654498421016507,0.0025,0.005));
#135=CARTESIAN_POINT('',(-0.000654498421016507,0.0025,0.005));
#136=CARTESIAN_POINT('',(-0.00130496668118968,0.00223056722474298,0.005));
#137=CARTESIAN_POINT('',(-0.00223056722474307,0.00130496668118976,0.005));
#138=CARTESIAN_POINT('',(-0.0025,0.000654498421016507,0.005));
#139=CARTESIAN_POINT('',(-0.0025,-0.000654498421016506,0.005));
#140=CARTESIAN_POINT('',(-0.00223056722474302,-0.00130496668118963,0.005));
#141=CARTESIAN_POINT('',(-0.00130496668118972,-0.00223056722474311,0.005));
#142=CARTESIAN_POINT('',(-0.000654498421016503,-0.0025,0.005));
#143=CARTESIAN_POINT('',(0.000654498421016511,-0.0025,0.005));
#144=CARTESIAN_POINT('',(0.00130496668118971,-0.00223056722474307,0.005));
#145=CARTESIAN_POINT('',(0.00223056722474302,-0.00130496668118968,0.005));
#146=CARTESIAN_POINT('',(0.0025,-0.000654498421016591,0.005));
#147=CARTESIAN_POINT('',(0.0025,1.53080849893419E-19,0.005));
#148=CARTESIAN_POINT('',(0.0025,1.53080849893419E-19,0.004));
#149=CARTESIAN_POINT('',(0.0025,0.000654498421016591,0.004));
#150=CARTESIAN_POINT('',(0.00223056722474301,0.00130496668118973,0.004));
#151=CARTESIAN_POINT('',(0.00130496668118973,0.00223056722474301,0.004));
#152=CARTESIAN_POINT('',(0.000654498421016507,0.0025,0.004));
#153=CARTESIAN_POINT('',(-0.000654498421016507,0.0025,0.004));
#154=CARTESIAN_POINT('',(-0.0013049666811897,0.00223056722474304,0.004));
#155=CARTESIAN_POINT('',(-0.00223056722474305,0.00130496668118969,0.004));
#156=CARTESIAN_POINT('',(-0.0025,0.000654498421016507,0.004));
#157=CARTESIAN_POINT('',(-0.0025,-0.000654498421016506,0.004));
#158=CARTESIAN_POINT('',(-0.00223056722474304,-0.0013049666811897,0.004));
#159=CARTESIAN_POINT('',(-0.00130496668118969,-0.00223056722474304,0.004));
#160=CARTESIAN_POINT('',(-0.000654498421016503,-0.0025,0.004));
#161=CARTESIAN_POINT('',(0.000654498421016511,-0.0025,0.004));
#162=CARTESIAN_POINT('',(0.00130496668118969,-0.00223056722474305,0.004));
#163=CARTESIAN_POINT('',(0.00223056722474304,-0.0013049666811897,0.004));
#164=CARTESIAN_POINT('',(0.0025,-0.000654498421016591,0.004));
#165=CARTESIAN_POINT('',(0.0025,1.53080849893419E-19,0.004));
#166=MECHANICAL_DESIGN_GEOMETRIC_PRESENTATION_REPRESENTATION('',(#48),#167);
#167=(
GEOMETRIC_REPRESENTATION_CONTEXT(3)
GLOBAL_UNCERTAINTY_ASSIGNED_CONTEXT((#168))
GLOBAL_UNIT_ASSIGNED_CONTEXT((#171,#170,#169))
REPRESENTATION_CONTEXT('Rubber Foot','TOP_LEVEL_ASSEMBLY_PART')
);
#168=UNCERTAINTY_MEASURE_WITH_UNIT(LENGTH_MEASURE(2.E-5),#171,
'DISTANCE_ACCURACY_VALUE','Maximum Tolerance applied to model');
#169=(
NAMED_UNIT(*)
SI_UNIT($,.STERADIAN.)
SOLID_ANGLE_UNIT()
);
#170=(
NAMED_UNIT(*)
PLANE_ANGLE_UNIT()
SI_UNIT($,.RADIAN.)
);
#171=(
LENGTH_UNIT()
NAMED_UNIT(*)
SI_UNIT($,.METRE.)
);
#172=PRODUCT_DEFINITION_SHAPE('','',#173);
#173=PRODUCT_DEFINITION('','',#175,#174);
#174=PRODUCT_DEFINITION_CONTEXT('',#181,'design');
#175=PRODUCT_DEFINITION_FORMATION_WITH_SPECIFIED_SOURCE('','',#177,
 .NOT_KNOWN.);
#176=PRODUCT_RELATED_PRODUCT_CATEGORY('','',(#177));
#177=PRODUCT('Rubber Foot','Rubber Foot','Rubber Foot',(#179));
#178=PRODUCT_CATEGORY('','');
#179=PRODUCT_CONTEXT('',#181,'mechanical');
#180=APPLICATION_PROTOCOL_DEFINITION('international standard',
'ap242_managed_model_based_3d_engineering',2020,#181);
#181=APPLICATION_CONTEXT('managed model based 3d engineering');
ENDSEC;
END-ISO-10303-21;
